<?xml version="1.0" standalone="no"?>
<!DOCTYPE svg PUBLIC "-//W3C//DTD SVG 20010904//EN"
 "http://www.w3.org/TR/2001/REC-SVG-20010904/DTD/svg10.dtd">
<svg version="1.0" xmlns="http://www.w3.org/2000/svg"
 width="612.000000pt" height="408.000000pt" viewBox="0 0 612.000000 408.000000"
 preserveAspectRatio="xMidYMid meet">

<g transform="translate(0.000000,408.000000) scale(0.100000,-0.100000)"
fill="#000000" stroke="none">
<path d="M941 4047 l-25 -32 30 26 c16 15 36 29 44 32 11 4 9 5 -5 6 -11 0
-31 -14 -44 -32z"/>
<path d="M1102 4070 c0 -8 4 -26 8 -40 6 -20 8 -21 8 -5 0 11 -3 29 -8 40 -5
12 -8 14 -8 5z"/>
<path d="M1257 4060 c-3 -11 -1 -20 4 -20 5 0 9 9 9 20 0 11 -2 20 -4 20 -2 0
-6 -9 -9 -20z"/>
<path d="M3192 3974 c-29 -57 -52 -110 -52 -117 0 -8 4 -7 10 3 5 8 10 10 10
4 0 -7 8 -15 17 -18 15 -6 14 -4 -2 14 -19 21 -18 22 29 117 26 52 45 97 44
99 -2 2 -27 -44 -56 -102z"/>
<path d="M3302 4014 c-18 -35 -32 -68 -32 -72 1 -4 17 24 36 62 19 37 34 70
32 72 -2 2 -18 -26 -36 -62z"/>
<path d="M3371 4040 c-12 -22 -29 -40 -36 -40 -8 0 -19 -9 -25 -21 -13 -23 -8
-35 10 -24 15 9 83 115 78 121 -3 2 -15 -14 -27 -36z m-31 -54 c0 -3 -4 -8
-10 -11 -5 -3 -10 -1 -10 4 0 6 5 11 10 11 6 0 10 -2 10 -4z"/>
<path d="M4515 4070 c3 -5 10 -10 16 -10 5 0 9 5 9 10 0 6 -7 10 -16 10 -8 0
-12 -4 -9 -10z"/>
<path d="M5496 4073 c-12 -12 -6 -33 9 -33 8 0 15 6 15 14 0 17 -14 28 -24 19z"/>
<path d="M2220 4055 c0 -10 7 -15 18 -13 21 4 19 22 -2 26 -10 2 -16 -3 -16
-13z"/>
<path d="M5557 4041 c-24 -42 -21 -52 4 -13 12 18 20 35 17 37 -2 2 -12 -9
-21 -24z"/>
<path d="M5860 4056 c0 -10 9 -16 21 -16 24 0 21 23 -4 28 -10 2 -17 -3 -17
-12z"/>
<path d="M709 4043 c-13 -16 -12 -17 4 -4 9 7 17 15 17 17 0 8 -8 3 -21 -13z"/>
<path d="M2741 4044 c0 -11 3 -14 6 -6 3 7 2 16 -1 19 -3 4 -6 -2 -5 -13z"/>
<path d="M3970 4050 c-9 -6 -10 -10 -3 -10 6 0 15 5 18 10 8 12 4 12 -15 0z"/>
<path d="M2076 4033 c-12 -12 -6 -33 9 -33 8 0 15 6 15 14 0 17 -14 28 -24 19z"/>
<path d="M271 4014 c0 -11 3 -14 6 -6 3 7 2 16 -1 19 -3 4 -6 -2 -5 -13z"/>
<path d="M4673 3950 c0 -47 2 -66 4 -42 2 23 2 61 0 85 -2 23 -4 4 -4 -43z"/>
<path d="M4992 3995 c-13 -16 -26 -23 -36 -19 -8 3 -22 -1 -31 -9 -14 -14 -14
-17 2 -25 19 -11 31 5 -129 -181 -43 -49 -78 -95 -77 -103 0 -7 4 -4 9 7 8 19
9 19 9 -2 1 -13 7 -23 15 -23 8 0 16 -7 20 -15 7 -19 -29 -44 -55 -38 -14 4
-19 0 -18 -13 0 -11 3 -14 6 -6 2 6 9 9 14 6 6 -3 22 2 37 11 30 19 42 32 151
156 41 46 84 94 95 107 l20 23 -47 40 c-43 37 -52 59 -26 59 5 0 30 -19 54
-41 36 -33 43 -45 34 -55 -8 -10 -8 -14 0 -14 6 0 12 6 13 13 0 6 2 17 2 22 1
6 7 20 14 32 14 25 16 59 4 67 -5 3 -7 -7 -5 -22 3 -15 -2 -35 -9 -44 -12 -16
-15 -15 -46 10 -31 26 -32 28 -16 50 11 15 23 22 35 19 11 -3 17 -1 13 4 -10
16 -32 9 -52 -16z m-54 -149 c-77 -93 -171 -196 -180 -196 -4 0 -8 10 -8 21 0
23 57 98 147 192 44 46 58 55 69 46 11 -9 6 -20 -28 -63z m69 28 c4 -11 -203
-244 -217 -244 -23 0 -5 30 66 110 42 47 88 100 102 118 24 31 42 37 49 16z"/>
<path d="M38 3988 c-22 -34 -42 -74 -31 -63 14 15 55 85 50 85 -3 0 -11 -10
-19 -22z"/>
<path d="M888 3992 c-3 -9 -2 -26 2 -37 6 -16 8 -14 12 13 5 35 -6 54 -14 24z"/>
<path d="M3848 3989 c-21 -11 -38 -22 -38 -24 0 -3 18 4 40 15 22 11 40 23 40
25 0 7 0 7 -42 -16z"/>
<path d="M691 3984 c0 -11 3 -14 6 -6 3 7 2 16 -1 19 -3 4 -6 -2 -5 -13z"/>
<path d="M1922 3984 c4 -21 22 -23 26 -1 2 10 -3 17 -13 17 -10 0 -15 -6 -13
-16z"/>
<path d="M4446 3992 c-3 -6 -1 -14 5 -17 15 -10 25 3 12 16 -7 7 -13 7 -17 1z"/>
<path d="M515 3981 c-8 -15 3 -31 21 -31 9 0 14 7 12 17 -4 20 -24 28 -33 14z"/>
<path d="M733 3972 c0 -12 3 -19 6 -17 2 3 11 -1 20 -7 10 -8 8 -3 -4 12 -11
14 -21 27 -22 29 -1 2 -1 -6 0 -17z"/>
<path d="M5357 3984 c-9 -10 2 -24 19 -24 8 0 14 7 14 15 0 15 -21 21 -33 9z"/>
<path d="M5733 3974 c-7 -19 2 -28 22 -21 19 8 19 23 0 31 -9 3 -18 -1 -22
-10z"/>
<path d="M3124 3929 c-14 -28 -24 -53 -22 -55 2 -2 16 21 31 51 15 30 25 55
22 55 -3 0 -16 -23 -31 -51z"/>
<path d="M975 3961 c-3 -5 -2 -12 3 -15 5 -3 9 1 9 9 0 17 -3 19 -12 6z"/>
<path d="M87 3915 c-14 -25 -24 -45 -22 -45 7 0 57 81 53 85 -2 2 -16 -16 -31
-40z"/>
<path d="M1122 3940 c0 -14 2 -19 5 -12 2 6 2 18 0 25 -3 6 -5 1 -5 -13z"/>
<path d="M1767 3954 c-9 -10 2 -24 19 -24 8 0 14 7 14 15 0 15 -21 21 -33 9z"/>
<path d="M2733 3915 c0 -27 2 -38 4 -22 2 15 2 37 0 50 -2 12 -4 0 -4 -28z"/>
<path d="M45 3939 c-4 -6 -5 -12 -2 -15 2 -3 7 2 10 11 7 17 1 20 -8 4z"/>
<path d="M849 3933 c-13 -16 -12 -17 4 -4 9 7 17 15 17 17 0 8 -8 3 -21 -13z"/>
<path d="M2570 3925 c0 -10 7 -15 18 -13 21 4 19 22 -2 26 -10 2 -16 -3 -16
-13z"/>
<path d="M5470 3909 c-12 -16 -21 -32 -18 -34 2 -2 13 12 26 31 28 42 21 45
-8 3z"/>
<path d="M803 3913 c9 -11 15 -22 12 -24 -2 -3 5 -5 15 -5 11 0 20 1 20 1 0 1
-15 12 -32 25 -27 19 -30 20 -15 3z"/>
<path d="M3708 3914 c-39 -21 -35 -28 5 -8 37 19 44 24 31 24 -5 -1 -21 -8
-36 -16z"/>
<path d="M4631 3914 c0 -11 3 -14 6 -6 3 7 2 16 -1 19 -3 4 -6 -2 -5 -13z"/>
<path d="M263 3880 c0 -25 2 -35 4 -22 2 12 2 32 0 45 -2 12 -4 2 -4 -23z"/>
<path d="M889 3894 c-6 -35 4 -78 12 -53 3 8 2 30 -1 49 l-6 35 -5 -31z"/>
<path d="M4602 3900 c0 -14 2 -19 5 -12 2 6 2 18 0 25 -3 6 -5 1 -5 -13z"/>
<path d="M2426 3903 c-12 -12 -6 -33 9 -33 8 0 15 6 15 14 0 17 -14 28 -24 19z"/>
<path d="M2901 3873 c-10 -26 -10 -27 4 -9 8 11 15 23 15 28 0 15 -7 8 -19
-19z"/>
<path d="M4370 3890 c0 -5 7 -10 15 -10 8 0 15 5 15 10 0 6 -7 10 -15 10 -8 0
-15 -4 -15 -10z"/>
<path d="M5600 3885 c0 -8 7 -15 15 -15 8 0 15 7 15 15 0 8 -7 15 -15 15 -8 0
-15 -7 -15 -15z"/>
<path d="M1020 3834 c-30 -32 -44 -49 -30 -38 25 18 96 94 88 94 -2 0 -28 -25
-58 -56z"/>
<path d="M3240 3882 c0 -4 -22 -32 -50 -62 -27 -29 -48 -55 -46 -57 5 -5 106
107 106 118 0 5 -2 9 -5 9 -3 0 -5 -4 -5 -8z"/>
<path d="M4243 3883 c20 -5 21 -14 5 -33 -7 -8 -4 -8 6 2 20 18 14 39 -12 37
-15 -1 -15 -2 1 -6z"/>
<path d="M5845 3860 c47 -55 48 -56 37 -35 -6 11 -23 31 -39 45 l-28 25 30
-35z"/>
<path d="M4210 3871 c0 -6 4 -13 10 -16 6 -3 7 1 4 9 -7 18 -14 21 -14 7z"/>
<path d="M4642 3850 c0 -19 2 -27 5 -17 2 9 2 25 0 35 -3 9 -5 1 -5 -18z"/>
<path d="M5750 3840 c-25 -21 -41 -39 -36 -40 5 0 28 18 52 40 56 52 43 52
-16 0z"/>
<path d="M2270 3855 c0 -8 7 -15 15 -15 8 0 15 7 15 15 0 8 -7 15 -15 15 -8 0
-15 -7 -15 -15z"/>
<path d="M2940 3849 c-7 -11 -10 -23 -7 -25 2 -2 9 7 15 21 14 30 7 33 -8 4z"/>
<path d="M772 3830 c-27 -36 -29 -65 -2 -30 16 21 33 60 26 60 -1 0 -12 -13
-24 -30z"/>
<path d="M3092 3835 c0 -16 2 -22 5 -12 2 9 2 23 0 30 -3 6 -5 -1 -5 -18z"/>
<path d="M3575 3824 c-18 -16 -22 -22 -9 -15 18 9 53 42 43 41 -2 -1 -17 -12
-34 -26z"/>
<path d="M4611 3834 c0 -11 3 -14 6 -6 3 7 2 16 -1 19 -3 4 -6 -2 -5 -13z"/>
<path d="M2126 3833 c-12 -12 -6 -33 9 -33 8 0 15 6 15 14 0 17 -14 28 -24 19z"/>
<path d="M3876 3784 c-10 -31 -16 -58 -14 -60 3 -2 12 21 22 52 10 31 16 58
14 60 -3 2 -12 -21 -22 -52z"/>
<path d="M5744 3780 c-84 -58 -89 -64 -102 -113 -9 -32 -8 -41 7 -56 10 -10
32 -43 50 -74 18 -31 35 -57 38 -57 5 0 -37 76 -64 115 -20 30 -16 35 29 35
l42 0 -37 38 c-20 21 -37 41 -37 44 0 3 30 27 66 53 44 31 72 45 85 42 17 -4
18 -3 8 9 -6 8 -12 14 -13 14 -1 0 -34 -22 -72 -50z m-54 -138 c-40 -4 -44 0
-36 34 l7 27 30 -29 31 -29 -32 -3z"/>
<path d="M565 3810 c-8 -14 3 -30 21 -30 8 0 14 9 14 20 0 21 -24 28 -35 10z"/>
<path d="M5477 3813 c-13 -12 -7 -33 8 -33 8 0 15 9 15 20 0 20 -11 26 -23 13z"/>
<path d="M4302 3801 c2 -7 7 -12 11 -12 12 1 9 15 -3 20 -7 2 -11 -2 -8 -8z"/>
<path d="M1123 3793 c9 -2 23 -2 30 0 6 3 -1 5 -18 5 -16 0 -22 -2 -12 -5z"/>
<path d="M1431 3784 c0 -11 3 -14 6 -6 3 7 2 16 -1 19 -3 4 -6 -2 -5 -13z"/>
<path d="M1964 3789 c-10 -17 13 -36 27 -22 12 12 4 33 -11 33 -5 0 -12 -5
-16 -11z"/>
<path d="M5377 3771 c-9 -16 -17 -33 -17 -38 0 -4 9 7 21 26 11 18 18 35 17
37 -2 2 -12 -10 -21 -25z"/>
<path d="M1641 3774 c0 -11 3 -14 6 -6 3 7 2 16 -1 19 -3 4 -6 -2 -5 -13z"/>
<path d="M1670 3779 c-12 -8 -10 -9 8 -4 13 4 30 1 39 -7 14 -11 15 -11 11 2
-6 19 -38 24 -58 9z"/>
<path d="M3801 3774 c0 -11 3 -14 6 -6 3 7 2 16 -1 19 -3 4 -6 -2 -5 -13z"/>
<path d="M900 3764 c0 -11 -6 -26 -12 -33 -11 -11 -10 -12 1 -6 8 4 17 2 22
-6 6 -9 7 -2 4 21 -7 39 -15 53 -15 24z"/>
<path d="M939 3763 c-13 -16 -12 -17 4 -4 9 7 17 15 17 17 0 8 -8 3 -21 -13z"/>
<path d="M2750 3764 c0 -6 7 -19 16 -30 14 -18 14 -18 3 6 -14 31 -19 36 -19
24z"/>
<path d="M3761 3754 c0 -11 3 -14 6 -6 3 7 2 16 -1 19 -3 4 -6 -2 -5 -13z"/>
<path d="M5885 3740 c72 -96 187 -240 191 -240 7 0 -137 187 -181 235 -33 35
-34 36 -10 5z"/>
<path d="M281 3744 c0 -11 3 -14 6 -6 3 7 2 16 -1 19 -3 4 -6 -2 -5 -13z"/>
<path d="M1812 3748 c7 -19 38 -22 38 -4 0 10 -9 16 -21 16 -12 0 -19 -5 -17
-12z"/>
<path d="M1070 3735 c-10 -12 -10 -21 -1 -38 l11 -22 -6 23 c-3 13 0 29 6 37
7 8 10 15 7 15 -2 0 -10 -7 -17 -15z"/>
<path d="M1685 3740 c-13 -6 -15 -9 -5 -9 8 0 22 4 30 9 18 12 2 12 -25 0z"/>
<path d="M3791 3734 c0 -11 3 -14 6 -6 3 7 2 16 -1 19 -3 4 -6 -2 -5 -13z"/>
<path d="M730 3731 c0 -10 39 -46 43 -40 2 2 -7 14 -20 26 -13 12 -23 19 -23
14z"/>
<path d="M1351 3724 c0 -11 3 -14 6 -6 3 7 2 16 -1 19 -3 4 -6 -2 -5 -13z"/>
<path d="M3434 3725 c-10 -8 -14 -15 -8 -15 6 0 17 7 24 15 16 19 9 19 -16 0z"/>
<path d="M1372 3710 c0 -14 2 -19 5 -12 2 6 2 18 0 25 -3 6 -5 1 -5 -13z"/>
<path d="M2310 3720 c-18 -12 -2 -12 25 0 13 6 15 9 5 9 -8 0 -22 -4 -30 -9z"/>
<path d="M3751 3714 c0 -11 3 -14 6 -6 3 7 2 16 -1 19 -3 4 -6 -2 -5 -13z"/>
<path d="M5784 3714 c-18 -14 -18 -15 4 -4 12 6 22 13 22 15 0 8 -5 6 -26 -11z"/>
<path d="M2495 3698 c4 -11 -97 -145 -183 -244 -15 -16 -6 -8 21 19 59 61 177
211 177 226 0 6 -4 11 -10 11 -5 0 -7 -6 -5 -12z"/>
<path d="M3781 3694 c0 -11 3 -14 6 -6 3 7 2 16 -1 19 -3 4 -6 -2 -5 -13z"/>
<path d="M820 3696 c0 -2 8 -10 18 -17 15 -13 16 -12 3 4 -13 16 -21 21 -21
13z"/>
<path d="M866 3683 c-6 -14 -5 -15 5 -6 7 7 10 15 7 18 -3 3 -9 -2 -12 -12z"/>
<path d="M2215 3685 c-25 -12 -26 -14 -5 -9 28 7 60 23 45 23 -5 0 -23 -6 -40
-14z"/>
<path d="M2428 3683 c7 -3 16 -2 19 1 4 3 -2 6 -13 5 -11 0 -14 -3 -6 -6z"/>
<path d="M4855 3618 c-65 -67 -66 -69 -18 -29 43 35 104 102 91 101 -2 -1 -34
-33 -73 -72z"/>
<path d="M930 3676 c0 -2 8 -10 18 -17 15 -13 16 -12 3 4 -13 16 -21 21 -21
13z"/>
<path d="M2388 3673 c7 -3 16 -2 19 1 4 3 -2 6 -13 5 -11 0 -14 -3 -6 -6z"/>
<path d="M2348 3663 c7 -3 16 -2 19 1 4 3 -2 6 -13 5 -11 0 -14 -3 -6 -6z"/>
<path d="M3300 3655 c-14 -8 -20 -14 -15 -14 6 0 21 6 35 14 14 8 21 14 15 14
-5 0 -21 -6 -35 -14z"/>
<path d="M3771 3654 c0 -11 3 -14 6 -6 3 7 2 16 -1 19 -3 4 -6 -2 -5 -13z"/>
<path d="M48 3653 c7 -3 16 -2 19 1 4 3 -2 6 -13 5 -11 0 -14 -3 -6 -6z"/>
<path d="M615 3650 c-8 -14 3 -30 21 -30 8 0 14 9 14 20 0 21 -24 28 -35 10z"/>
<path d="M2835 3645 c11 -9 29 -21 40 -26 l20 -10 -20 16 c-11 9 -29 21 -40
26 l-20 10 20 -16z"/>
<path d="M5302 3635 c-17 -37 -14 -45 4 -12 9 16 14 31 11 33 -2 2 -9 -7 -15
-21z"/>
<path d="M9 3633 c-13 -16 -12 -17 4 -4 9 7 17 15 17 17 0 8 -8 3 -21 -13z"/>
<path d="M988 3643 c6 -2 18 -2 25 0 6 3 1 5 -13 5 -14 0 -19 -2 -12 -5z"/>
<path d="M2278 3643 c7 -3 16 -2 19 1 4 3 -2 6 -13 5 -11 0 -14 -3 -6 -6z"/>
<path d="M5805 3624 l-30 -26 33 22 c17 12 32 23 32 26 0 7 -4 5 -35 -22z"/>
<path d="M2028 3624 c-39 -21 -35 -28 5 -8 37 19 44 24 31 24 -5 -1 -21 -8
-36 -16z"/>
<path d="M2328 3613 c-36 -16 -58 -32 -58 -42 0 -9 -16 -29 -35 -44 -35 -28
-44 -23 -24 14 6 11 17 18 24 15 7 -2 16 2 19 10 5 12 0 12 -31 -1 -19 -8 -38
-15 -42 -15 -3 0 -1 -4 6 -8 15 -10 -11 -72 -30 -72 -8 0 -17 -7 -21 -15 -3
-8 -11 -15 -18 -15 -8 0 -19 -13 -25 -30 -15 -39 -31 -38 -36 3 -3 28 -4 27
-5 -10 -2 -34 1 -41 15 -39 9 2 24 17 33 34 8 17 21 32 28 32 6 0 12 3 12 8 0
4 41 36 90 72 86 61 171 130 160 129 -3 -1 -31 -12 -62 -26z m-18 -33 c-14
-10 -27 -16 -30 -13 -6 6 30 33 44 33 6 0 0 -9 -14 -20z"/>
<path d="M4711 3624 c0 -11 3 -14 6 -6 3 7 2 16 -1 19 -3 4 -6 -2 -5 -13z"/>
<path d="M97 3610 c36 -50 176 -225 191 -240 21 -20 13 -8 -71 100 -63 81
-159 193 -120 140z"/>
<path d="M2185 3620 c-13 -5 -14 -9 -5 -9 8 0 24 4 35 9 13 5 14 9 5 9 -8 0
-24 -4 -35 -9z"/>
<path d="M180 3595 c13 -14 26 -25 28 -25 3 0 -5 11 -18 25 -13 14 -26 25 -28
25 -3 0 5 -11 18 -25z"/>
<path d="M340 3614 c0 -5 12 -22 26 -39 l26 -30 -23 35 c-29 45 -29 45 -29 34z"/>
<path d="M3175 3610 c-16 -7 -17 -9 -3 -9 9 -1 20 4 23 9 7 11 7 11 -20 0z"/>
<path d="M5825 3595 c-39 -32 -29 -32 15 0 19 14 30 25 24 25 -5 -1 -22 -12
-39 -25z"/>
<path d="M2108 3593 c7 -3 16 -2 19 1 4 3 -2 6 -13 5 -11 0 -14 -3 -6 -6z"/>
<path d="M3128 3593 c7 -3 16 -2 19 1 4 3 -2 6 -13 5 -11 0 -14 -3 -6 -6z"/>
<path d="M2993 3583 c9 -2 25 -2 35 0 9 3 1 5 -18 5 -19 0 -27 -2 -17 -5z"/>
<path d="M2038 3573 c7 -3 16 -2 19 1 4 3 -2 6 -13 5 -11 0 -14 -3 -6 -6z"/>
<path d="M1038 3544 c-39 -21 -35 -28 5 -8 37 19 44 24 31 24 -5 -1 -21 -8
-36 -16z"/>
<path d="M1191 3557 c2 -1 13 -9 24 -17 19 -14 19 -14 6 3 -7 9 -18 17 -24 17
-6 0 -8 -1 -6 -3z"/>
<path d="M1945 3550 c-13 -5 -14 -9 -5 -9 8 0 24 4 35 9 13 5 14 9 5 9 -8 0
-24 -4 -35 -9z"/>
<path d="M2115 3515 c-27 -14 -40 -22 -28 -20 17 5 22 1 26 -17 4 -20 4 -19 6
5 1 19 8 30 26 37 14 5 25 12 25 15 0 7 0 7 -55 -20z"/>
<path d="M2613 3524 c-8 -22 8 -66 27 -71 12 -4 13 -3 1 5 -16 12 -6 32 16 32
10 0 14 -6 10 -20 -3 -11 -1 -18 4 -14 14 8 10 34 -6 40 -8 4 -23 0 -32 -7
-14 -13 -16 -11 -11 19 5 35 1 42 -9 16z"/>
<path d="M4020 3535 c0 -5 5 -17 10 -25 5 -8 10 -10 10 -5 0 6 -5 17 -10 25
-5 8 -10 11 -10 5z"/>
<path d="M4090 3515 c13 -14 26 -25 28 -25 3 0 -5 11 -18 25 -13 14 -26 25
-28 25 -3 0 5 -11 18 -25z"/>
<path d="M4268 3533 c7 -3 16 -2 19 1 4 3 -2 6 -13 5 -11 0 -14 -3 -6 -6z"/>
<path d="M5872 3509 c-23 -17 -42 -33 -42 -35 0 -3 20 9 45 27 40 29 51 39 42
39 -2 0 -22 -14 -45 -31z"/>
<path d="M3995 3519 c-4 -6 -5 -12 -2 -15 2 -3 7 2 10 11 7 17 1 20 -8 4z"/>
<path d="M4215 3520 c-3 -6 1 -7 9 -4 18 7 21 14 7 14 -6 0 -13 -4 -16 -10z"/>
<path d="M5257 3513 c-7 -12 -20 -79 -14 -73 6 6 27 80 22 80 -2 0 -6 -3 -8
-7z"/>
<path d="M5915 3494 l-30 -26 33 22 c17 12 32 23 32 26 0 7 -4 5 -35 -22z"/>
<path d="M1898 3503 c6 -2 18 -2 25 0 6 3 1 5 -13 5 -14 0 -19 -2 -12 -5z"/>
<path d="M2151 3494 c0 -11 3 -14 6 -6 3 7 2 16 -1 19 -3 4 -6 -2 -5 -13z"/>
<path d="M45 3464 c-27 -18 -46 -34 -42 -34 10 0 97 59 97 65 0 7 -1 7 -55
-31z"/>
<path d="M455 3482 c11 -13 29 -28 40 -34 21 -11 18 -8 -30 32 -29 24 -29 24
-10 2z"/>
<path d="M1948 3493 c6 -2 18 -2 25 0 6 3 1 5 -13 5 -14 0 -19 -2 -12 -5z"/>
<path d="M2013 3484 c14 -5 17 -18 17 -95 0 -49 2 -89 5 -89 3 0 39 28 80 63
52 43 87 64 113 68 31 5 28 6 -23 7 -36 1 -55 -2 -47 -7 10 -6 1 -19 -34 -49
-25 -23 -50 -39 -55 -36 -5 3 -12 -3 -17 -13 -4 -11 -9 16 -12 67 -4 76 -7 85
-25 87 -16 1 -16 1 -2 -3z"/>
<path d="M3481 3474 c-1 -29 26 -51 47 -38 20 13 24 25 12 44 -8 12 -11 13
-22 2 -11 -11 -10 -13 2 -10 8 2 15 -4 15 -12 0 -26 -38 -17 -46 10 -6 22 -7
23 -8 4z"/>
<path d="M3990 3481 c0 -5 5 -13 10 -16 6 -3 10 -2 10 4 0 5 -4 13 -10 16 -5
3 -10 2 -10 -4z"/>
<path d="M5925 3465 c-39 -32 -29 -32 15 0 19 14 30 25 24 25 -5 -1 -22 -12
-39 -25z"/>
<path d="M6087 3470 c4 -22 -7 -34 -97 -98 -56 -39 -110 -72 -120 -72 -9 0
-25 10 -34 23 -15 21 -16 20 -1 -10 9 -18 21 -33 28 -33 12 0 155 98 215 148
31 25 32 29 19 47 -15 19 -15 19 -10 -5z"/>
<path d="M909 3453 l-24 -26 33 23 c33 25 38 30 24 30 -5 0 -19 -12 -33 -27z"/>
<path d="M3139 3480 c-1 -3 -2 -21 -4 -40 l-3 -34 15 28 c11 20 12 31 4 39 -6
6 -11 9 -12 7z"/>
<path d="M4131 3460 c14 -31 19 -36 19 -24 0 6 -7 19 -16 30 -14 18 -14 18 -3
-6z"/>
<path d="M2072 3445 c0 -16 2 -22 5 -12 2 9 2 23 0 30 -3 6 -5 -1 -5 -18z"/>
<path d="M5749 3455 c5 -11 17 -29 26 -40 l16 -20 -10 20 c-5 11 -17 29 -26
40 l-16 20 10 -20z"/>
<path d="M5426 3445 c-3 -9 -6 -22 -5 -28 0 -7 5 -1 10 12 5 13 8 26 5 28 -2
2 -6 -3 -10 -12z"/>
<path d="M65 3430 c-16 -11 -25 -20 -20 -20 10 0 64 39 55 40 -3 0 -18 -9 -35
-20z"/>
<path d="M1210 3418 c-15 -21 -17 -28 -6 -19 16 13 41 51 33 51 -2 0 -14 -15
-27 -32z"/>
<path d="M4981 3434 c0 -11 3 -14 6 -6 3 7 2 16 -1 19 -3 4 -6 -2 -5 -13z"/>
<path d="M5010 3445 c0 -5 5 -17 10 -25 5 -8 10 -10 10 -5 0 6 -5 17 -10 25
-5 8 -10 11 -10 5z"/>
<path d="M299 3425 c5 -11 17 -29 26 -40 l16 -20 -10 20 c-5 11 -17 29 -26 40
l-16 20 10 -20z"/>
<path d="M4089 3423 c-13 -16 -12 -17 4 -4 16 13 21 21 13 21 -2 0 -10 -8 -17
-17z"/>
<path d="M5442 3415 c-17 -37 -14 -45 4 -12 9 16 14 31 11 33 -2 2 -9 -7 -15
-21z"/>
<path d="M1583 3395 c0 -22 2 -30 4 -17 2 12 2 30 0 40 -3 9 -5 -1 -4 -23z"/>
<path d="M4555 3410 c-4 -12 -2 -27 3 -32 8 -8 9 -5 6 9 -4 13 0 23 11 27 14
5 16 2 12 -20 -3 -16 -1 -22 5 -16 14 14 5 46 -14 50 -10 2 -19 -6 -23 -18z"/>
<path d="M4292 3394 c-14 -16 -5 -18 17 -5 7 5 9 11 5 14 -5 3 -15 -1 -22 -9z"/>
<path d="M4990 3396 c0 -8 4 -17 9 -20 5 -4 7 3 4 14 -6 23 -13 26 -13 6z"/>
<path d="M5030 3391 c0 -6 4 -13 10 -16 6 -3 7 1 4 9 -7 18 -14 21 -14 7z"/>
<path d="M620 3380 c8 -5 20 -10 25 -10 6 0 3 5 -5 10 -8 5 -19 10 -25 10 -5
0 -3 -5 5 -10z"/>
<path d="M2903 3383 c9 -2 23 -2 30 0 6 3 -1 5 -18 5 -16 0 -22 -2 -12 -5z"/>
<path d="M5800 3370 c6 -11 13 -20 16 -20 2 0 0 9 -6 20 -6 11 -13 20 -16 20
-2 0 0 -9 6 -20z"/>
<path d="M1625 3365 c-16 -8 -23 -14 -14 -15 8 0 24 7 35 15 23 18 18 18 -21
0z"/>
<path d="M2837 3361 c-3 -12 0 -18 7 -15 7 3 20 -12 29 -32 10 -20 20 -34 23
-31 3 2 -5 21 -17 42 -18 31 -20 38 -8 46 11 7 9 9 -7 9 -13 0 -24 -8 -27 -19z"/>
<path d="M4328 3355 c-3 -14 -1 -25 3 -25 5 0 9 11 9 25 0 14 -2 25 -4 25 -2
0 -6 -11 -8 -25z"/>
<path d="M114 3348 c-41 -30 -52 -42 -29 -30 26 15 72 51 64 52 -4 0 -19 -10
-35 -22z"/>
<path d="M810 3351 c-8 -10 -16 -24 -18 -32 -1 -8 7 -3 18 11 28 36 29 54 0
21z"/>
<path d="M2911 3354 c0 -11 3 -14 6 -6 3 7 2 16 -1 19 -3 4 -6 -2 -5 -13z"/>
<path d="M4006 3332 l-30 -37 35 31 c18 17 41 34 49 37 10 4 9 5 -5 5 -11 1
-33 -16 -49 -36z"/>
<path d="M150 3329 c-35 -31 -35 -31 -3 -9 18 11 35 25 38 30 10 16 2 11 -35
-21z"/>
<path d="M359 3329 c12 -20 21 -46 21 -58 0 -12 4 -20 9 -16 13 7 -3 53 -30
85 -21 25 -21 25 0 -11z"/>
<path d="M1098 3353 c7 -3 16 -2 19 1 4 3 -2 6 -13 5 -11 0 -14 -3 -6 -6z"/>
<path d="M2991 3356 c2 -2 15 -9 29 -15 24 -11 24 -11 6 3 -16 13 -49 24 -35
12z"/>
<path d="M4170 3345 c0 -8 4 -15 10 -15 5 0 7 7 4 15 -4 8 -8 15 -10 15 -2 0
-4 -7 -4 -15z"/>
<path d="M5244 3335 c4 -16 12 -34 17 -40 5 -5 4 6 -2 25 -15 45 -24 54 -15
15z"/>
<path d="M317 3321 c17 -28 17 -31 0 -49 -9 -10 -17 -25 -17 -34 0 -8 -9 -23
-20 -33 -26 -23 -28 0 -2 29 9 11 -11 0 -46 -25 -112 -79 -121 -84 -138 -67
-9 8 -33 44 -55 79 -34 56 -39 61 -39 36 0 -16 4 -26 10 -22 6 3 14 -5 19 -18
6 -14 15 -28 20 -32 6 -3 10 -21 10 -38 l-1 -32 -8 30 c-4 17 -8 23 -9 15 -1
-12 -4 -11 -16 3 -7 11 -11 26 -8 35 4 15 3 15 -6 2 -10 -15 -8 -20 43 -97 11
-18 27 -33 35 -33 13 0 52 25 146 92 28 20 53 37 58 37 4 1 10 1 15 1 4 1 21
12 37 26 17 14 22 22 11 18 -15 -6 -17 -3 -12 14 7 21 -14 75 -34 87 -5 3 -2
-7 7 -24z m16 -75 c6 -14 -4 -26 -33 -40 -8 -4 -4 2 9 13 13 12 18 21 12 21
-6 0 -11 5 -11 10 0 15 17 12 23 -4z m-89 -60 c-6 -16 -24 -23 -24 -8 0 10 22
33 27 28 2 -2 1 -11 -3 -20z m-34 -21 c0 -15 -38 -41 -47 -32 -5 5 33 47 42
47 3 0 5 -7 5 -15z m-85 -41 c21 14 25 14 25 2 0 -8 -13 -21 -30 -30 -16 -8
-30 -10 -30 -5 0 6 -4 7 -10 4 -6 -4 -10 6 -10 22 1 26 1 27 15 9 13 -18 16
-18 40 -2z"/>
<path d="M738 3343 c6 -2 18 -2 25 0 6 3 1 5 -13 5 -14 0 -19 -2 -12 -5z"/>
<path d="M1048 3343 c6 -2 18 -2 25 0 6 3 1 5 -13 5 -14 0 -19 -2 -12 -5z"/>
<path d="M3775 3330 c-10 -11 -16 -22 -14 -24 2 -2 12 7 22 20 22 29 17 32 -8
4z"/>
<path d="M5750 3337 c0 -16 93 -107 109 -107 10 0 33 17 52 37 l34 37 -38 -32
c-21 -18 -44 -32 -52 -32 -7 0 -34 24 -59 52 -25 29 -46 49 -46 45z"/>
<path d="M170 3305 c-19 -14 -30 -25 -25 -25 6 0 24 11 40 25 39 31 30 31 -15
0z"/>
<path d="M2806 3305 c-9 -14 -23 -37 -32 -52 l-16 -28 20 24 c24 29 55 81 49
81 -3 0 -12 -11 -21 -25z"/>
<path d="M3079 3306 c7 -8 10 -19 7 -25 -3 -5 -2 -20 2 -33 7 -17 2 -37 -19
-78 -23 -45 -28 -50 -29 -30 -1 19 -11 5 -41 -54 -22 -43 -38 -80 -36 -82 2
-2 18 24 35 58 24 49 31 57 32 38 0 -14 -6 -34 -13 -45 -16 -24 -28 -55 -22
-55 9 0 115 228 115 246 0 34 -12 63 -27 69 -13 4 -14 3 -4 -9z"/>
<path d="M3295 3299 c-4 -6 -5 -12 -2 -15 2 -3 7 2 10 11 7 17 1 20 -8 4z"/>
<path d="M3961 3295 c0 -12 -5 -26 -11 -33 -5 -7 -3 -6 6 2 9 7 14 22 11 32
-4 17 -5 17 -6 -1z"/>
<path d="M2970 3281 c14 -11 30 -21 35 -21 11 0 -7 14 -40 31 -13 7 -12 3 5
-10z"/>
<path d="M1935 3259 c-9 -17 -15 -33 -13 -35 3 -2 12 12 21 31 21 43 13 47 -8
4z"/>
<path d="M3760 3273 c0 -10 4 -14 8 -8 4 6 11 13 16 18 5 4 2 7 -7 7 -10 0
-17 -8 -17 -17z"/>
<path d="M3803 3263 c0 -11 7 -20 14 -20 10 0 10 4 1 16 -7 9 -13 18 -15 20
-1 2 -1 -5 0 -16z"/>
<path d="M2313 3220 c-21 -35 -24 -36 -48 -10 -10 11 -23 20 -29 20 -6 -1 2
-12 19 -25 l29 -24 -20 -28 c-32 -45 -38 -61 -10 -28 14 17 25 33 26 38 0 16
18 4 83 -58 37 -36 67 -62 67 -58 0 4 -30 36 -66 70 l-66 62 22 36 c12 19 19
35 16 35 -3 0 -13 -13 -23 -30z"/>
<path d="M2865 3243 c6 -5 33 -22 60 -37 28 -15 41 -20 30 -11 -22 19 -106 63
-90 48z"/>
<path d="M4192 3225 c0 -16 2 -22 5 -12 2 9 2 23 0 30 -3 6 -5 -1 -5 -18z"/>
<path d="M581 3214 c0 -11 3 -14 6 -6 3 7 2 16 -1 19 -3 4 -6 -2 -5 -13z"/>
<path d="M741 3214 c0 -11 3 -14 6 -6 3 7 2 16 -1 19 -3 4 -6 -2 -5 -13z"/>
<path d="M1742 3165 c-17 -36 -30 -65 -27 -65 7 0 67 121 63 126 -2 2 -18 -26
-36 -61z"/>
<path d="M3908 3213 c-15 -14 -19 -14 -35 -2 -17 13 -17 13 -1 -7 14 -16 15
-23 5 -34 -10 -12 -9 -12 5 -1 9 7 23 9 30 5 10 -5 10 -4 1 6 -10 11 -9 17 4
32 20 23 13 24 -9 1z"/>
<path d="M4080 3220 c-9 -6 -10 -10 -3 -10 6 0 15 5 18 10 8 12 4 12 -15 0z"/>
<path d="M5320 3222 c0 -4 14 -16 30 -25 17 -10 30 -16 30 -14 0 2 -13 13 -30
25 -16 13 -30 19 -30 14z"/>
<path d="M2740 3200 c-6 -11 -8 -20 -6 -20 3 0 10 9 16 20 6 11 8 20 6 20 -3
0 -10 -9 -16 -20z"/>
<path d="M3046 3194 c-9 -24 -7 -27 9 -10 17 17 19 26 6 26 -5 0 -12 -7 -15
-16z"/>
<path d="M3305 3199 c-4 -6 -5 -12 -2 -15 2 -3 7 2 10 11 7 17 1 20 -8 4z"/>
<path d="M2870 3195 c0 -7 61 -37 66 -33 2 3 -12 12 -31 21 -19 9 -35 15 -35
12z"/>
<path d="M564 3164 c-2 -22 0 -23 10 -8 10 13 17 14 34 5 11 -6 24 -11 29 -11
8 1 -57 39 -67 40 -3 0 -6 -11 -6 -26z"/>
<path d="M731 3174 c0 -11 3 -14 6 -6 3 7 2 16 -1 19 -3 4 -6 -2 -5 -13z"/>
<path d="M2713 3158 c-20 -26 -26 -41 -15 -34 12 7 36 46 29 46 -3 0 -9 -6
-14 -12z"/>
<path d="M3958 3164 c-3 -5 -2 -20 2 -34 6 -24 6 -24 12 -4 6 22 -6 53 -14 38z"/>
<path d="M4090 3124 c-25 -26 -36 -41 -25 -34 19 12 81 80 73 80 -2 0 -24 -21
-48 -46z"/>
<path d="M1804 3142 c-6 -9 -20 -34 -33 -54 -12 -21 -20 -38 -18 -38 7 0 69
101 65 106 -2 2 -8 -5 -14 -14z"/>
<path d="M3257 3095 c-15 -30 -25 -55 -22 -55 7 0 57 101 53 106 -2 2 -16 -21
-31 -51z"/>
<path d="M3842 3120 c-27 -36 -29 -65 -2 -30 16 21 33 60 26 60 -1 0 -12 -13
-24 -30z"/>
<path d="M4319 3123 l-24 -28 28 24 c25 23 32 31 24 31 -2 0 -14 -12 -28 -27z"/>
<path d="M4777 3139 c7 -7 15 -10 18 -7 3 3 -2 9 -12 12 -14 6 -15 5 -6 -5z"/>
<path d="M963 3105 c0 -22 2 -30 4 -17 2 12 2 30 0 40 -3 9 -5 -1 -4 -23z"/>
<path d="M1379 3111 c-21 -17 -22 -21 -11 -46 8 -16 9 -32 4 -39 -5 -6 -12
-21 -15 -34 -5 -21 -3 -23 23 -17 26 6 29 3 36 -27 l7 -33 12 45 c7 31 13 40
17 28 4 -9 4 -24 2 -35 -3 -10 -1 -29 5 -43 7 -19 10 -20 10 -7 1 10 5 16 10
13 5 -3 8 5 7 18 0 13 -5 22 -10 19 -5 -3 -6 0 -4 8 3 8 12 14 20 13 10 -1 14
10 13 39 -1 52 -21 66 -61 43 -16 -10 -20 -14 -9 -10 31 11 58 10 62 -2 3 -10
-90 -54 -115 -54 -20 0 -14 28 7 35 20 6 20 6 0 26 -26 26 -24 47 7 61 20 9
30 9 47 -2 20 -12 21 -12 8 3 -18 22 -43 21 -72 -2z m95 -116 c-4 -8 -8 -15
-10 -15 -2 0 -4 7 -4 15 0 8 4 15 10 15 5 0 7 -7 4 -15z m-44 -20 c0 -8 -2
-15 -4 -15 -2 0 -6 7 -10 15 -3 8 -1 15 4 15 6 0 10 -7 10 -15z m37 -47 c-3
-8 -6 -5 -6 6 -1 11 2 17 5 13 3 -3 4 -12 1 -19z"/>
<path d="M2791 3126 c2 -2 15 -9 29 -15 24 -11 24 -11 6 3 -16 13 -49 24 -35
12z"/>
<path d="M4830 3115 c14 -8 30 -14 35 -14 6 0 -1 6 -15 14 -14 8 -29 14 -35
14 -5 0 1 -6 15 -14z"/>
<path d="M1892 3090 c0 -19 2 -27 5 -17 2 9 2 25 0 35 -3 9 -5 1 -5 -18z"/>
<path d="M2674 3098 c-4 -7 -14 -24 -22 -38 -14 -24 -13 -24 3 -5 20 24 37 55
31 55 -3 0 -8 -6 -12 -12z"/>
<path d="M3196 3095 c-9 -26 -7 -32 5 -12 6 10 9 21 6 23 -2 3 -7 -2 -11 -11z"/>
<path d="M2850 3096 c0 -3 9 -10 20 -16 11 -6 20 -8 20 -6 0 3 -9 10 -20 16
-11 6 -20 8 -20 6z"/>
<path d="M4880 3096 c0 -2 7 -7 16 -10 8 -3 12 -2 9 4 -6 10 -25 14 -25 6z"/>
<path d="M5638 3093 c6 -2 18 -2 25 0 6 3 1 5 -13 5 -14 0 -19 -2 -12 -5z"/>
<path d="M3495 3080 c-3 -6 1 -13 9 -16 21 -8 20 -21 -1 -27 -16 -4 -16 -5 -1
-6 24 -2 34 20 15 34 -9 7 -14 15 -10 18 3 4 4 7 0 7 -3 0 -9 -5 -12 -10z"/>
<path d="M4193 3083 c9 -2 23 -2 30 0 6 3 -1 5 -18 5 -16 0 -22 -2 -12 -5z"/>
<path d="M4759 3064 c45 -57 226 -244 236 -244 5 1 -6 15 -26 33 -20 18 -75
74 -123 126 -65 70 -84 96 -74 102 9 6 6 9 -10 9 l-23 0 20 -26z"/>
<path d="M4808 3073 c7 -3 16 -2 19 1 4 3 -2 6 -13 5 -11 0 -14 -3 -6 -6z"/>
<path d="M4858 3063 c7 -3 16 -2 19 1 4 3 -2 6 -13 5 -11 0 -14 -3 -6 -6z"/>
<path d="M5078 3063 c7 -3 16 -2 19 1 4 3 -2 6 -13 5 -11 0 -14 -3 -6 -6z"/>
<path d="M5808 3063 c6 -2 18 -2 25 0 6 3 1 5 -13 5 -14 0 -19 -2 -12 -5z"/>
<path d="M2850 3056 c0 -2 7 -7 16 -10 8 -3 12 -2 9 4 -6 10 -25 14 -25 6z"/>
<path d="M3805 3039 c-7 -21 18 -59 39 -59 6 0 0 7 -13 16 -17 12 -21 22 -17
40 8 29 0 32 -9 3z"/>
<path d="M3971 3048 c-1 -10 -14 -24 -31 -33 -16 -9 -30 -21 -30 -28 0 -8 -3
-8 -9 2 -5 7 -11 9 -14 4 -8 -13 38 -37 52 -29 6 4 11 13 10 19 0 9 -2 9 -6 0
-2 -7 -11 -13 -19 -13 -21 0 -6 26 23 39 21 10 28 9 36 -1 7 -10 8 -9 4 3 -3
9 0 22 6 29 9 10 9 11 0 6 -6 -3 -14 0 -16 6 -3 8 -6 6 -6 -4z"/>
<path d="M4908 3053 c6 -2 18 -2 25 0 6 3 1 5 -13 5 -14 0 -19 -2 -12 -5z"/>
<path d="M5110 3056 c0 -2 7 -7 16 -10 8 -3 12 -2 9 4 -6 10 -25 14 -25 6z"/>
<path d="M722 3025 c0 -16 2 -22 5 -12 2 9 2 23 0 30 -3 6 -5 -1 -5 -18z"/>
<path d="M4958 3043 c6 -2 18 -2 25 0 6 3 1 5 -13 5 -14 0 -19 -2 -12 -5z"/>
<path d="M5928 3043 c7 -3 16 -2 19 1 4 3 -2 6 -13 5 -11 0 -14 -3 -6 -6z"/>
<path d="M1721 3004 c-12 -19 -16 -32 -11 -29 11 7 43 65 36 65 -2 0 -13 -16
-25 -36z"/>
<path d="M5008 3033 c6 -2 18 -2 25 0 6 3 1 5 -13 5 -14 0 -19 -2 -12 -5z"/>
<path d="M5968 3033 c6 -2 18 -2 25 0 6 3 1 5 -13 5 -14 0 -19 -2 -12 -5z"/>
<path d="M2630 3023 c0 -6 6 -18 13 -25 8 -7 16 -20 20 -28 3 -9 6 -10 6 -2 2
24 19 12 26 -18 7 -31 43 -64 102 -94 35 -18 70 -22 40 -5 -19 11 -49 63 -41
71 3 3 -2 8 -11 11 -14 6 -14 3 1 -24 8 -17 13 -34 9 -37 -10 -11 -37 25 -38
53 -2 22 -12 32 -52 52 -27 14 -55 33 -62 42 -7 9 -12 11 -13 4z m109 -90 c6
-14 9 -28 6 -31 -8 -8 -32 19 -40 45 -9 32 18 20 34 -14z"/>
<path d="M4133 3015 c-3 -9 -3 -19 1 -22 3 -4 -4 -18 -16 -31 l-23 -25 26 19
c18 13 26 27 25 46 -1 32 -4 35 -13 13z"/>
<path d="M4900 3007 c72 -50 90 -59 90 -48 0 6 -6 11 -14 11 -8 0 -18 5 -21
10 -4 7 3 9 22 5 30 -6 -42 27 -87 40 -21 6 -19 3 10 -18z"/>
<path d="M5058 3023 c6 -2 18 -2 25 0 6 3 1 5 -13 5 -14 0 -19 -2 -12 -5z"/>
<path d="M982 2995 c0 -16 2 -22 5 -12 2 9 2 23 0 30 -3 6 -5 -1 -5 -18z"/>
<path d="M5108 3013 c7 -3 16 -2 19 1 4 3 -2 6 -13 5 -11 0 -14 -3 -6 -6z"/>
<path d="M6088 3013 c6 -2 18 -2 25 0 6 3 1 5 -13 5 -14 0 -19 -2 -12 -5z"/>
<path d="M390 2995 c-6 -8 -10 -20 -7 -27 4 -8 6 -7 6 4 1 23 19 32 36 18 9
-7 15 -8 15 -2 0 5 -7 13 -16 16 -21 8 -20 8 -34 -9z"/>
<path d="M4492 2985 c0 -16 2 -22 5 -12 2 9 2 23 0 30 -3 6 -5 -1 -5 -18z"/>
<path d="M5148 3003 c6 -2 18 -2 25 0 6 3 1 5 -13 5 -14 0 -19 -2 -12 -5z"/>
<path d="M5198 2993 c7 -3 16 -2 19 1 4 3 -2 6 -13 5 -11 0 -14 -3 -6 -6z"/>
<path d="M1883 2955 c0 -22 2 -30 4 -17 2 12 2 30 0 40 -3 9 -5 -1 -4 -23z"/>
<path d="M2945 2972 c-2 -7 0 -10 5 -7 15 9 12 -10 -7 -49 -9 -19 -20 -33 -25
-30 -4 3 -3 15 2 27 10 22 10 22 -6 0 -20 -27 -34 -28 -77 -7 l-32 17 34 -32
c19 -18 31 -37 28 -45 -6 -15 19 -30 34 -20 5 3 27 40 48 83 35 68 37 77 20
77 -10 0 -21 -6 -24 -14z m-39 -121 c-15 -14 -18 -14 -26 -1 -7 11 -4 17 8 21
26 10 36 -1 18 -20z"/>
<path d="M3990 2983 c0 -5 10 -18 23 -29 l22 -19 -20 25 c-11 14 -21 27 -22
29 -2 2 -3 0 -3 -6z"/>
<path d="M5238 2983 c6 -2 18 -2 25 0 6 3 1 5 -13 5 -14 0 -19 -2 -12 -5z"/>
<path d="M2641 2964 c0 -11 3 -14 6 -6 3 7 2 16 -1 19 -3 4 -6 -2 -5 -13z"/>
<path d="M5018 2958 c4 -16 2 -19 -9 -13 -8 4 -5 -1 6 -12 12 -11 25 -22 30
-24 29 -13 85 -52 85 -60 0 -5 8 -9 18 -9 16 0 68 -67 59 -76 -5 -5 -91 56
-95 68 -2 4 -27 7 -55 6 l-52 -2 45 -3 c36 -3 60 -15 119 -59 40 -30 76 -53
78 -50 3 3 -1 12 -10 20 -8 9 -13 27 -11 43 3 21 2 23 -4 9 -8 -17 -9 -17 -25
7 -9 15 -17 30 -17 35 0 6 -8 12 -17 16 -40 13 -78 44 -84 67 -5 16 -7 18 -8
6 -1 -15 -5 -16 -21 -7 -22 12 -27 40 -7 40 8 0 7 4 -3 10 -23 15 -29 12 -22
-12z"/>
<path d="M5288 2973 c6 -2 18 -2 25 0 6 3 1 5 -13 5 -14 0 -19 -2 -12 -5z"/>
<path d="M4435 2941 c-4 -20 -15 -32 -38 -40 -27 -9 -28 -10 -4 -6 18 4 27 1
27 -7 0 -8 5 -6 11 5 5 9 20 17 32 17 34 0 47 13 31 28 -12 10 -14 10 -14 -3
0 -8 -9 -15 -20 -15 -17 0 -19 5 -14 25 3 14 4 25 1 25 -3 0 -8 -13 -12 -29z"/>
<path d="M5338 2963 c7 -3 16 -2 19 1 4 3 -2 6 -13 5 -11 0 -14 -3 -6 -6z"/>
<path d="M5586 2945 c-9 -26 -7 -32 5 -12 6 10 9 21 6 23 -2 3 -7 -2 -11 -11z"/>
<path d="M390 2946 c0 -2 8 -10 18 -17 15 -13 16 -12 3 4 -13 16 -21 21 -21
13z"/>
<path d="M2311 2927 c-1 -27 -31 -34 -49 -11 -8 10 -12 13 -10 5 2 -8 12 -19
21 -25 20 -13 53 14 44 36 -4 9 -6 7 -6 -5z"/>
<path d="M4058 2933 c6 -2 18 -2 25 0 6 3 1 5 -13 5 -14 0 -19 -2 -12 -5z"/>
<path d="M4528 2933 c6 -2 18 -2 25 0 6 3 1 5 -13 5 -14 0 -19 -2 -12 -5z"/>
<path d="M5121 2913 c1 -23 3 -24 6 -6 4 19 8 21 29 13 14 -6 28 -10 32 -10
10 1 -20 17 -45 24 -20 7 -23 4 -22 -21z"/>
<path d="M5536 2914 c-4 -14 -5 -28 -3 -31 3 -2 8 8 11 23 4 14 5 28 3 31 -3
2 -8 -8 -11 -23z"/>
<path d="M5328 2923 c7 -3 16 -2 19 1 4 3 -2 6 -13 5 -11 0 -14 -3 -6 -6z"/>
<path d="M1022 2890 c0 -19 2 -27 5 -17 2 9 2 25 0 35 -3 9 -5 1 -5 -18z"/>
<path d="M5261 2909 c-13 -5 -32 -7 -42 -4 -16 6 -19 1 -17 -32 1 -36 1 -36 5
-6 3 23 8 30 19 26 8 -3 12 -13 9 -27 -3 -11 -1 -43 4 -71 l9 -50 1 76 1 76
33 11 c17 5 25 10 17 10 -8 1 -26 -4 -39 -9z"/>
<path d="M5622 2895 c-17 -37 -14 -45 4 -12 9 16 14 31 11 33 -2 2 -9 -7 -15
-21z"/>
<path d="M741 2884 c0 -11 3 -14 6 -6 3 7 2 16 -1 19 -3 4 -6 -2 -5 -13z"/>
<path d="M3285 2890 c-8 -13 3 -30 20 -30 14 0 27 24 18 34 -10 9 -31 7 -38
-4z"/>
<path d="M4471 2884 c0 -11 3 -14 6 -6 3 7 2 16 -1 19 -3 4 -6 -2 -5 -13z"/>
<path d="M3460 2860 c0 -11 7 -20 15 -20 8 0 15 9 15 20 0 11 -7 20 -15 20 -8
0 -15 -9 -15 -20z"/>
<path d="M5556 2865 c-9 -26 -7 -32 5 -12 6 10 9 21 6 23 -2 3 -7 -2 -11 -11z"/>
<path d="M6010 2860 c-10 -19 -13 -19 -33 -5 -12 8 -26 15 -32 15 -5 -1 2 -8
18 -16 33 -18 33 -18 6 -56 -12 -16 -18 -32 -15 -35 3 -4 6 -2 6 3 0 5 8 19
18 32 l18 24 33 -31 c18 -17 37 -31 42 -31 5 0 -9 16 -31 36 -38 35 -39 37
-24 60 9 13 14 24 11 24 -4 0 -11 -9 -17 -20z"/>
<path d="M4411 2853 c-1 -14 -7 -23 -16 -23 -13 0 -14 -2 -3 -14 11 -12 13
-12 16 0 2 8 11 14 20 14 11 0 13 3 6 8 -6 4 -14 14 -17 22 -4 10 -6 8 -6 -7z"/>
<path d="M3626 2851 c-3 -5 1 -15 10 -22 13 -10 17 -10 24 1 5 8 6 18 4 22 -7
11 -31 10 -38 -1z"/>
<path d="M4459 2858 c-5 -18 -7 -59 -2 -48 3 8 10 20 15 27 5 7 5 14 -2 18 -5
3 -10 5 -11 3z"/>
<path d="M1592 2835 c0 -5 6 -26 13 -45 7 -19 14 -28 14 -20 0 8 -6 29 -14 45
-7 17 -13 26 -13 20z"/>
<path d="M3800 2820 c0 -15 5 -20 18 -18 9 2 17 10 17 18 0 8 -8 16 -17 18
-13 2 -18 -3 -18 -18z"/>
<path d="M1861 2814 c0 -11 3 -14 6 -6 3 7 2 16 -1 19 -3 4 -6 -2 -5 -13z"/>
<path d="M3970 2806 c0 -21 21 -31 30 -15 5 7 6 17 4 21 -9 14 -34 9 -34 -6z"/>
<path d="M4336 2811 c-4 -5 3 -7 14 -4 23 6 26 13 6 13 -8 0 -17 -4 -20 -9z"/>
<path d="M1401 2805 c0 -5 6 -21 14 -35 8 -14 14 -20 14 -15 0 6 -6 21 -14 35
-8 14 -14 21 -14 15z"/>
<path d="M4142 2783 c2 -10 10 -18 18 -18 22 0 18 29 -3 33 -14 3 -18 -1 -15
-15z"/>
<path d="M1470 2785 c0 -5 5 -17 10 -25 5 -8 10 -10 10 -5 0 6 -5 17 -10 25
-5 8 -10 11 -10 5z"/>
<path d="M4436 2775 c-9 -26 -7 -32 5 -12 6 10 9 21 6 23 -2 3 -7 -2 -11 -11z"/>
<path d="M1574 2732 c1 -37 5 -51 14 -47 15 6 17 -51 1 -61 -6 -3 -25 8 -43
26 -26 27 -28 31 -10 26 23 -7 42 18 24 29 -6 4 -10 -1 -10 -9 0 -17 -29 -11
-42 8 -5 7 -8 6 -8 -2 0 -8 23 -37 51 -65 28 -29 48 -44 45 -34 -3 9 0 17 6
17 14 0 5 84 -15 131 l-14 34 1 -53z"/>
<path d="M2092 2755 c-7 -14 -12 -31 -12 -38 1 -7 7 3 16 22 17 39 13 54 -4
16z"/>
<path d="M786 2757 c3 -10 9 -15 12 -12 3 3 0 11 -7 18 -10 9 -11 8 -5 -6z"/>
<path d="M110 2750 c0 -16 253 -272 259 -262 3 6 15 12 26 15 12 3 5 5 -17 6
-33 1 -47 12 -148 118 -94 99 -109 118 -93 124 16 7 15 8 -4 8 -13 1 -23 -3
-23 -9z"/>
<path d="M3200 2744 c-281 -41 -567 -146 -783 -288 -249 -164 -408 -395 -406
-591 0 -66 18 -113 66 -178 22 -28 55 -78 73 -109 36 -61 166 -195 172 -178 2
7 25 3 60 -9 32 -11 78 -23 103 -27 29 -4 51 -14 58 -25 14 -22 32 -26 24 -5
-9 22 303 9 320 -13 11 -15 12 -15 13 0 0 13 24 17 158 24 86 5 181 9 210 10
28 0 52 4 52 8 0 5 23 7 50 5 28 -1 51 1 53 5 4 13 81 27 91 17 13 -13 27 -13
23 1 -1 6 36 22 83 35 47 14 111 37 143 51 31 14 60 23 63 21 3 -3 16 4 29 16
12 11 46 37 75 56 29 19 64 47 78 63 14 15 32 27 39 27 8 0 11 5 8 11 -4 6 1
20 12 32 61 70 104 202 104 324 0 114 -28 211 -89 308 -14 22 -43 74 -64 116
-41 83 -116 162 -187 199 -67 34 -185 60 -305 66 -114 7 -326 -3 -326 -14 0
-4 102 -7 228 -7 222 0 229 -1 313 -28 102 -34 179 -89 232 -169 108 -164 122
-352 37 -524 -41 -83 -111 -174 -136 -174 -8 0 -14 -6 -14 -12 0 -13 -62 -58
-79 -58 -5 0 -11 -4 -13 -8 -5 -13 -116 -66 -178 -86 -163 -52 -232 -67 -425
-92 -138 -17 -568 -25 -682 -12 -144 16 -291 72 -367 138 -153 134 -100 399
123 620 234 232 611 397 1017 445 70 8 129 17 132 20 9 9 -90 3 -188 -11z
m931 -549 c17 -57 28 -118 20 -108 -16 18 -71 161 -76 198 l-6 40 25 -45 c14
-25 31 -63 37 -85z m-6 -95 c31 -77 36 -98 30 -136 -3 -24 -10 -42 -16 -39 -5
4 -9 12 -9 18 0 7 -14 41 -30 75 -26 55 -29 71 -24 118 4 30 8 54 9 54 1 0 19
-41 40 -90z m-15 -144 c23 -62 27 -83 19 -104 -12 -31 -16 -26 -58 65 -31 66
-33 74 -21 103 16 40 24 32 60 -64z m-32 -87 c27 -61 28 -68 15 -93 l-15 -28
-44 66 c-24 36 -44 70 -44 77 0 6 8 24 17 40 22 36 30 29 71 -62z m-56 -67
c39 -59 44 -71 33 -86 -12 -16 -15 -14 -41 21 -73 100 -72 97 -60 116 6 9 14
17 17 17 3 0 26 -31 51 -68z m-38 -52 l45 -65 -20 -20 -21 -20 -16 25 c-10 14
-32 41 -49 61 -18 20 -33 40 -33 44 0 13 33 46 42 43 4 -2 28 -32 52 -68z
m-72 -30 c19 -21 41 -51 48 -66 14 -25 13 -28 -15 -50 -17 -13 -33 -23 -36
-21 -4 1 -29 32 -57 68 l-50 67 27 20 c37 29 45 27 83 -18z m-51 -107 c16 -23
29 -44 29 -47 0 -5 -54 -36 -63 -36 -8 0 -101 140 -96 143 2 2 15 11 29 21 24
16 26 16 48 -11 13 -15 36 -47 53 -70z m-98 -23 l48 -71 -66 -30 c-113 -51
-114 -51 -159 28 -21 37 -39 72 -40 77 0 5 16 15 36 22 42 14 39 17 87 -69 44
-78 51 -66 9 14 -18 35 -34 67 -36 71 -3 6 42 26 63 27 6 1 32 -31 58 -69z
m-1532 -75 l22 -40 -21 19 c-25 21 -92 120 -92 133 1 13 67 -68 91 -112z m56
1 c21 -30 43 -62 49 -72 7 -11 14 -16 18 -13 3 3 -10 28 -28 57 -19 28 -37 55
-40 61 -3 5 3 7 15 4 11 -3 43 -39 70 -79 55 -82 51 -88 -29 -54 -39 17 -54
32 -89 89 -24 38 -43 72 -43 75 0 18 43 -20 77 -68z m1284 -3 l40 -72 -42 -13
c-36 -10 -44 -10 -51 2 -5 8 -24 41 -43 74 -19 32 -35 62 -35 67 0 9 35 17 68
15 18 -1 32 -18 63 -73z m-124 9 c37 -54 58 -100 51 -107 -2 -3 -25 -8 -49
-11 l-44 -6 -45 66 c-25 36 -49 66 -53 66 -11 0 -9 -5 37 -73 21 -31 37 -59
35 -61 -2 -2 -20 -6 -39 -10 -35 -6 -35 -5 -83 70 -26 42 -47 77 -45 78 2 2
159 30 193 35 6 0 24 -20 42 -47z m-1020 -11 c6 -9 30 -42 53 -73 l41 -58 -28
0 c-15 0 -33 4 -39 8 -12 7 -104 138 -104 147 0 11 66 -10 77 -24z m809 -51
c26 -39 44 -73 41 -76 -3 -3 -20 -7 -38 -7 -29 -2 -35 4 -75 67 -24 38 -41 73
-38 78 3 4 18 8 35 8 25 0 35 -10 75 -70z m-662 -17 c30 -42 54 -79 51 -81 -2
-2 -21 -1 -42 2 -28 5 -44 16 -60 39 -11 18 -35 51 -53 75 l-32 42 40 0 c38 0
42 -3 96 -77z m569 5 c44 -71 45 -73 24 -80 -52 -15 -61 -9 -109 65 -27 40
-48 76 -48 80 0 4 20 7 44 7 44 0 44 0 89 -72z m-486 -13 c29 -38 53 -73 53
-76 0 -4 -13 -4 -29 0 -21 4 -44 25 -80 73 -28 37 -51 70 -51 73 0 4 12 5 28
3 20 -2 40 -20 79 -73z m78 8 c63 -89 64 -93 26 -93 -17 0 -31 4 -31 9 0 5
-22 37 -50 72 -27 35 -50 67 -50 72 0 4 13 7 29 7 25 0 37 -10 76 -67z m79 -6
c25 -41 46 -77 46 -80 0 -4 -10 -7 -22 -7 -17 0 -35 18 -70 73 -27 40 -48 76
-48 80 0 4 11 7 24 7 20 0 34 -15 70 -73z m116 6 c24 -38 46 -70 47 -72 2 -2
6 -2 9 2 3 3 -10 29 -28 59 -19 29 -38 59 -42 66 -5 9 3 12 32 12 38 0 41 -3
87 -71 26 -38 45 -73 42 -75 -3 -3 -47 -8 -99 -11 l-93 -5 -42 72 c-24 39 -43
75 -43 81 0 5 19 9 43 9 41 0 43 -2 87 -67z"/>
<path d="M4381 2744 c0 -11 3 -14 6 -6 3 7 2 16 -1 19 -3 4 -6 -2 -5 -13z"/>
<path d="M178 2743 c6 -2 18 -2 25 0 6 3 1 5 -13 5 -14 0 -19 -2 -12 -5z"/>
<path d="M1541 2734 c0 -11 3 -14 6 -6 3 7 2 16 -1 19 -3 4 -6 -2 -5 -13z"/>
<path d="M89 2723 c6 -10 22 -31 36 -48 20 -23 19 -18 -6 18 -32 46 -49 63
-30 30z"/>
<path d="M238 2733 c7 -3 16 -2 19 1 4 3 -2 6 -13 5 -11 0 -14 -3 -6 -6z"/>
<path d="M288 2723 c6 -2 18 -2 25 0 6 3 1 5 -13 5 -14 0 -19 -2 -12 -5z"/>
<path d="M5798 2723 c6 -2 18 -2 25 0 6 3 1 5 -13 5 -14 0 -19 -2 -12 -5z"/>
<path d="M338 2713 c6 -2 18 -2 25 0 6 3 1 5 -13 5 -14 0 -19 -2 -12 -5z"/>
<path d="M2121 2704 c0 -11 3 -14 6 -6 3 7 2 16 -1 19 -3 4 -6 -2 -5 -13z"/>
<path d="M400 2700 c14 -4 34 -8 45 -8 16 0 15 2 -5 8 -14 4 -34 8 -45 8 -16
0 -15 -2 5 -8z"/>
<path d="M2191 2703 c-1 -6 -4 -20 -7 -30 -5 -17 -5 -17 6 0 6 10 9 23 6 30
-3 9 -5 9 -5 0z"/>
<path d="M271 2672 c76 -48 76 -48 60 -29 -12 15 -11 17 3 17 9 0 17 -4 17
-10 1 -5 2 -13 3 -17 3 -16 64 -69 75 -65 6 2 14 -3 17 -12 3 -9 9 -14 14 -11
4 2 16 -2 26 -10 18 -13 17 -14 -16 -15 -34 0 -34 0 48 -60 45 -33 86 -60 92
-60 5 0 10 12 9 28 0 23 -1 24 -8 7 -7 -18 -10 -17 -30 15 -11 19 -21 41 -21
48 0 7 -5 10 -10 7 -6 -4 -17 9 -25 27 -8 18 -15 26 -15 18 0 -8 -9 1 -20 20
-11 19 -19 31 -20 27 0 -5 5 -17 10 -28 16 -29 -5 -24 -29 7 -12 16 -21 21
-21 13 -1 -11 -3 -11 -13 2 -7 8 -20 18 -29 22 -10 3 -18 15 -18 26 0 22 -28
35 -56 25 -10 -4 -16 -3 -11 1 4 5 -7 15 -24 22 -52 22 -56 15 -8 -15z m257
-183 c5 -11 12 -19 16 -17 5 2 16 -8 25 -22 l16 -24 -30 18 c-16 10 -43 28
-60 42 l-30 24 28 0 c19 0 30 -7 35 -21z"/>
<path d="M488 2683 c7 -3 16 -2 19 1 4 3 -2 6 -13 5 -11 0 -14 -3 -6 -6z"/>
<path d="M528 2673 c6 -2 18 -2 25 0 6 3 1 5 -13 5 -14 0 -19 -2 -12 -5z"/>
<path d="M1797 2645 c-9 -19 -15 -35 -12 -35 7 0 37 61 33 66 -3 2 -12 -12
-21 -31z"/>
<path d="M578 2663 c6 -2 18 -2 25 0 6 3 1 5 -13 5 -14 0 -19 -2 -12 -5z"/>
<path d="M5320 2660 c8 -5 20 -10 25 -10 6 0 3 5 -5 10 -8 5 -19 10 -25 10 -5
0 -3 -5 5 -10z"/>
<path d="M628 2653 c6 -2 18 -2 25 0 6 3 1 5 -13 5 -14 0 -19 -2 -12 -5z"/>
<path d="M2500 2636 c-66 -27 -144 -67 -185 -95 -49 -34 -23 -24 71 26 49 26
116 57 149 70 33 12 51 22 40 22 -11 -1 -45 -11 -75 -23z"/>
<path d="M386 2635 c4 -8 8 -15 10 -15 2 0 4 7 4 15 0 8 -4 15 -10 15 -5 0 -7
-7 -4 -15z"/>
<path d="M678 2643 c7 -3 16 -2 19 1 4 3 -2 6 -13 5 -11 0 -14 -3 -6 -6z"/>
<path d="M4485 2639 c-4 -6 -5 -12 -2 -15 2 -3 7 2 10 11 7 17 1 20 -8 4z"/>
<path d="M5360 2646 c0 -2 7 -7 16 -10 8 -3 12 -2 9 4 -6 10 -25 14 -25 6z"/>
<path d="M416 2625 c4 -8 8 -15 10 -15 2 0 4 7 4 15 0 8 -4 15 -10 15 -5 0 -7
-7 -4 -15z"/>
<path d="M728 2633 c7 -3 16 -2 19 1 4 3 -2 6 -13 5 -11 0 -14 -3 -6 -6z"/>
<path d="M3711 2633 c0 -5 26 -20 57 -35 73 -35 128 -80 163 -137 30 -46 40
-41 15 8 -22 42 -98 107 -165 140 -64 33 -71 35 -70 24z"/>
<path d="M464 2615 c17 -7 33 -21 37 -31 7 -17 8 -17 8 3 1 15 -8 24 -30 32
-43 15 -51 13 -15 -4z"/>
<path d="M860 2629 c0 -3 11 -20 25 -39 14 -19 25 -30 25 -24 -1 10 -50 73
-50 63z"/>
<path d="M700 2605 c-19 -7 -28 -14 -20 -14 8 0 29 6 45 14 39 17 21 18 -25 0z"/>
<path d="M4553 2606 c9 -7 17 -21 17 -31 0 -10 3 -16 6 -12 13 12 -6 57 -24
57 -16 -1 -16 -1 1 -14z"/>
<path d="M5470 2610 c8 -5 22 -9 30 -9 10 0 8 3 -5 9 -27 12 -43 12 -25 0z"/>
<path d="M4472 2579 c-2 -45 26 -74 61 -65 14 3 28 13 31 23 6 16 6 16 -12 0
-37 -34 -67 -16 -75 43 l-4 35 -1 -36z"/>
<path d="M180 2593 c0 -5 12 -20 28 -34 l27 -24 -25 30 c-14 17 -26 32 -27 34
-2 2 -3 0 -3 -6z"/>
<path d="M520 2593 c0 -14 20 -39 20 -25 0 24 17 12 28 -20 10 -27 11 -28 7
-5 -5 24 -2 27 22 28 21 0 15 4 -22 14 -27 8 -51 14 -52 15 -2 0 -3 -3 -3 -7z"/>
<path d="M4786 2585 c-9 -26 -7 -32 5 -12 6 10 9 21 6 23 -2 3 -7 -2 -11 -11z"/>
<path d="M5528 2593 c6 -2 12 -11 12 -19 0 -16 16 -19 25 -5 5 10 -25 32 -42
30 -4 0 -2 -3 5 -6z"/>
<path d="M638 2583 c7 -3 16 -2 19 1 4 3 -2 6 -13 5 -11 0 -14 -3 -6 -6z"/>
<path d="M5657 2569 c-3 -13 -1 -19 6 -16 15 5 22 37 9 37 -5 0 -12 -9 -15
-21z"/>
<path d="M5777 2584 c-8 -8 1 -24 14 -24 5 0 9 7 9 15 0 15 -12 20 -23 9z"/>
<path d="M5892 2581 c4 -13 18 -16 19 -4 0 4 -5 9 -11 12 -7 2 -11 -2 -8 -8z"/>
<path d="M6010 2575 c0 -8 5 -15 10 -15 6 0 10 7 10 15 0 8 -4 15 -10 15 -5 0
-10 -7 -10 -15z"/>
<path d="M602 2530 c0 -19 2 -27 5 -17 2 9 2 25 0 35 -3 9 -5 1 -5 -18z"/>
<path d="M946 2551 c-7 -11 18 -33 27 -24 4 3 7 12 7 20 0 15 -26 18 -34 4z"/>
<path d="M1121 2536 c-12 -14 -5 -26 16 -26 15 0 18 26 4 34 -5 3 -14 0 -20
-8z"/>
<path d="M1706 2512 c-22 -27 -24 -32 -7 -17 20 17 47 55 39 55 -2 0 -16 -17
-32 -38z"/>
<path d="M4780 2500 c-11 -22 -18 -40 -15 -40 2 0 14 18 25 40 11 22 18 40 15
40 -2 0 -14 -18 -25 -40z"/>
<path d="M1294 2515 c-9 -23 10 -40 25 -22 9 11 8 17 -4 27 -12 10 -16 9 -21
-5z"/>
<path d="M5760 2516 c0 -3 14 -12 30 -21 17 -9 30 -13 30 -11 0 3 -13 12 -30
21 -16 9 -30 13 -30 11z"/>
<path d="M580 2500 c0 -17 17 -47 23 -40 2 3 -2 16 -10 30 -7 14 -13 18 -13
10z"/>
<path d="M960 2506 c0 -3 15 -15 33 -27 23 -17 28 -18 18 -6 -14 18 -51 42
-51 33z"/>
<path d="M1460 2495 c-10 -12 -9 -16 3 -21 21 -8 37 3 30 21 -7 19 -17 19 -33
0z"/>
<path d="M5151 2484 c0 -11 3 -14 6 -6 3 7 2 16 -1 19 -3 4 -6 -2 -5 -13z"/>
<path d="M1637 2483 c-4 -3 -7 -12 -7 -20 0 -15 26 -18 34 -4 7 11 -18 33 -27
24z"/>
<path d="M2563 2452 c-86 -49 -80 -62 7 -15 38 21 70 41 70 46 0 12 -11 7 -77
-31z"/>
<path d="M1807 2464 c-14 -14 -7 -35 11 -32 9 2 17 10 17 17 0 16 -18 25 -28
15z"/>
<path d="M5100 2461 c0 -10 19 -25 25 -20 1 2 -3 10 -11 17 -8 7 -14 8 -14 3z"/>
<path d="M2179 2433 c-36 -40 -90 -111 -121 -159 -70 -109 -129 -256 -107
-270 5 -3 9 9 9 26 0 62 127 283 223 388 22 23 35 42 30 42 -5 0 -20 -12 -34
-27z"/>
<path d="M4800 2429 c-7 -11 -10 -23 -7 -25 2 -2 9 7 15 21 14 30 7 33 -8 4z"/>
<path d="M1587 2421 c-41 -26 -46 -36 -10 -17 17 9 35 20 38 26 8 13 6 12 -28
-9z"/>
<path d="M5925 2415 c17 -13 34 -24 39 -25 6 0 -5 11 -24 25 -44 32 -54 32
-15 0z"/>
<path d="M1120 2400 c19 -11 40 -19 45 -19 6 0 -6 8 -25 19 -19 11 -39 19 -45
19 -5 0 6 -8 25 -19z"/>
<path d="M205 2380 c-8 -24 2 -60 17 -60 6 0 6 6 -2 15 -7 8 -10 25 -6 40 8
30 0 34 -9 5z"/>
<path d="M1458 2363 c7 -3 16 -2 19 1 4 3 -2 6 -13 5 -11 0 -14 -3 -6 -6z"/>
<path d="M3977 2338 c8 -46 13 -48 13 -5 0 21 -4 37 -10 37 -5 0 -7 -14 -3
-32z"/>
<path d="M1273 2353 c9 -2 25 -2 35 0 9 3 1 5 -18 5 -19 0 -27 -2 -17 -5z"/>
<path d="M1408 2353 c6 -2 18 -2 25 0 6 3 1 5 -13 5 -14 0 -19 -2 -12 -5z"/>
<path d="M620 2346 c0 -3 9 -10 20 -16 11 -6 20 -8 20 -6 0 3 -9 10 -20 16
-11 6 -20 8 -20 6z"/>
<path d="M956 2324 c-4 -14 -5 -28 -3 -31 3 -2 8 8 11 23 4 14 5 28 3 31 -3 2
-8 -8 -11 -23z"/>
<path d="M255 2330 c-3 -5 -1 -10 4 -10 6 0 11 5 11 10 0 6 -2 10 -4 10 -3 0
-8 -4 -11 -10z"/>
<path d="M3284 2316 c-3 -13 -4 -38 -2 -57 3 -30 7 -34 33 -36 28 -2 28 -1 5
5 -22 7 -25 14 -25 52 0 51 15 60 45 30 17 -17 21 -29 16 -54 -4 -22 -3 -27 4
-16 13 20 12 44 -2 75 -16 34 -65 36 -74 1z"/>
<path d="M3553 2323 c-40 -9 -73 -18 -73 -22 0 -4 36 0 80 9 44 8 80 18 80 23
0 8 4 9 -87 -10z"/>
<path d="M5225 2330 c-16 -7 -17 -9 -3 -9 9 -1 20 4 23 9 7 11 7 11 -20 0z"/>
<path d="M6030 2337 c0 -2 15 -16 33 -33 l32 -29 -29 33 c-28 30 -36 37 -36
29z"/>
<path d="M2315 2281 c-33 -27 -83 -78 -111 -113 -61 -74 -124 -179 -117 -191
3 -5 18 14 33 42 46 84 96 146 187 231 96 89 100 106 8 31z"/>
<path d="M3220 2320 c0 -5 5 -10 10 -10 6 0 10 5 10 10 0 6 -4 10 -10 10 -5 0
-10 -4 -10 -10z"/>
<path d="M5503 2323 c19 -3 27 -10 27 -24 0 -21 13 -23 75 -9 38 9 38 9 -11 4
-45 -4 -52 -2 -57 16 -4 15 -13 20 -34 19 l-28 -2 28 -4z"/>
<path d="M1772 2254 c-18 -35 -32 -68 -32 -72 1 -4 17 24 36 62 19 37 34 70
32 72 -2 2 -18 -26 -36 -62z"/>
<path d="M3165 2310 c-14 -6 -16 -9 -4 -9 9 -1 19 -16 25 -43 5 -23 15 -44 23
-46 8 -3 11 0 8 6 -4 5 -8 30 -8 56 -2 47 -8 52 -44 36z"/>
<path d="M5168 2313 c6 -2 18 -2 25 0 6 3 1 5 -13 5 -14 0 -19 -2 -12 -5z"/>
<path d="M5433 2313 c9 -2 23 -2 30 0 6 3 -1 5 -18 5 -16 0 -22 -2 -12 -5z"/>
<path d="M3016 2278 c-27 -31 -29 -32 -37 -13 -5 14 -8 4 -8 -32 -1 -29 3 -53
8 -53 5 0 7 9 4 20 -7 26 7 25 35 0 27 -26 29 -11 3 17 -20 21 -20 21 0 39 10
9 17 19 14 22 -2 3 3 11 13 18 9 7 12 14 7 14 -6 0 -23 -15 -39 -32z"/>
<path d="M5118 2303 c6 -2 18 -2 25 0 6 3 1 5 -13 5 -14 0 -19 -2 -12 -5z"/>
<path d="M5363 2303 c9 -2 23 -2 30 0 6 3 -1 5 -18 5 -16 0 -22 -2 -12 -5z"/>
<path d="M5066 2291 c-4 -5 3 -7 14 -4 23 6 26 13 6 13 -8 0 -17 -4 -20 -9z"/>
<path d="M5303 2293 c9 -2 23 -2 30 0 6 3 -1 5 -18 5 -16 0 -22 -2 -12 -5z"/>
<path d="M4391 2283 c-1 -6 -4 -20 -7 -30 -5 -17 -5 -17 6 0 6 10 9 23 6 30
-3 9 -5 9 -5 0z"/>
<path d="M5243 2283 c9 -2 23 -2 30 0 6 3 -1 5 -18 5 -16 0 -22 -2 -12 -5z"/>
<path d="M5658 2283 c8 -3 22 -19 33 -37 10 -17 19 -26 19 -20 0 17 -40 64
-53 63 -8 0 -7 -3 1 -6z"/>
<path d="M2852 2257 c-24 -26 -28 -57 -10 -75 21 -21 32 -13 12 9 -17 18 -17
23 -4 47 9 14 26 29 40 33 21 6 22 7 4 8 -11 1 -30 -9 -42 -22z"/>
<path d="M5188 2273 c6 -2 18 -2 25 0 6 3 1 5 -13 5 -14 0 -19 -2 -12 -5z"/>
<path d="M720 2264 c0 -5 7 -18 15 -28 8 -11 15 -16 15 -10 0 5 -7 18 -15 28
-8 11 -15 16 -15 10z"/>
<path d="M5138 2263 c6 -2 18 -2 25 0 6 3 1 5 -13 5 -14 0 -19 -2 -12 -5z"/>
<path d="M2736 2199 c-4 -34 -5 -64 -2 -67 3 -3 6 4 6 16 0 12 4 22 9 22 4 0
6 12 3 26 -3 18 -1 25 6 20 6 -4 8 2 5 14 -11 40 -21 29 -27 -31z"/>
<path d="M5098 2253 c7 -3 16 -2 19 1 4 3 -2 6 -13 5 -11 0 -14 -3 -6 -6z"/>
<path d="M5541 2238 c1 -16 3 -18 6 -6 2 9 14 19 26 21 18 4 17 5 -5 6 -23 1
-28 -3 -27 -21z"/>
<path d="M5615 2253 c11 -3 30 -14 43 -26 12 -11 22 -18 22 -14 0 15 -45 47
-64 46 -20 -1 -20 -1 -1 -6z"/>
<path d="M522 2225 c-17 -37 -14 -45 4 -12 9 16 14 31 11 33 -2 2 -9 -7 -15
-21z"/>
<path d="M2648 2239 c13 -5 20 -13 17 -19 -7 -11 8 -14 18 -4 13 13 -7 34 -32
33 -26 0 -26 0 -3 -10z"/>
<path d="M5058 2223 c-2 -16 1 -46 8 -68 l11 -40 7 57 c4 32 5 62 1 68 -11 18
-23 11 -27 -17z m19 -30 c-3 -10 -5 -2 -5 17 0 19 2 27 5 18 2 -10 2 -26 0
-35z"/>
<path d="M1676 2225 c-9 -26 -7 -32 5 -12 6 10 9 21 6 23 -2 3 -7 -2 -11 -11z"/>
<path d="M2616 2200 c7 -52 25 -91 23 -50 -2 39 -1 40 27 29 24 -8 25 -8 14 6
-7 8 -23 15 -37 15 -13 0 -22 4 -19 8 2 4 0 14 -5 22 -7 11 -8 1 -3 -30z"/>
<path d="M452 2210 c0 -14 2 -19 5 -12 2 6 2 18 0 25 -3 6 -5 1 -5 -13z"/>
<path d="M1636 2215 c-9 -26 -7 -32 5 -12 6 10 9 21 6 23 -2 3 -7 -2 -11 -11z"/>
<path d="M5285 2209 c-4 -6 -4 -13 -1 -16 3 -4 6 -1 6 5 0 21 30 13 40 -10 5
-13 9 -18 9 -11 2 36 -37 60 -54 32z"/>
<path d="M5513 2165 c0 -33 2 -45 4 -27 2 18 2 45 0 60 -2 15 -4 0 -4 -33z"/>
<path d="M5113 2160 c0 -30 2 -43 4 -27 2 15 2 39 0 55 -2 15 -4 2 -4 -28z"/>
<path d="M5549 2138 c-7 -87 -31 -134 -86 -165 l-32 -19 22 -13 c19 -13 21
-12 10 1 -11 12 -9 17 12 26 13 6 36 29 51 52 23 35 31 40 64 40 52 0 98 18
112 44 10 19 9 19 -16 -3 -19 -18 -41 -26 -81 -29 -37 -3 -55 -1 -55 7 0 6 17
12 38 13 36 1 36 1 5 5 -31 4 -32 5 -35 61 -3 57 -3 56 -9 -20z"/>
<path d="M5713 2170 c0 -25 2 -35 4 -22 2 12 2 32 0 45 -2 12 -4 2 -4 -23z"/>
<path d="M2770 2197 c0 -5 9 -20 20 -34 11 -14 20 -22 20 -17 -1 12 -39 61
-40 51z"/>
<path d="M4386 2185 c-9 -26 -7 -32 5 -12 6 10 9 21 6 23 -2 3 -7 -2 -11 -11z"/>
<path d="M1656 2175 c-9 -26 -7 -32 5 -12 6 10 9 21 6 23 -2 3 -7 -2 -11 -11z"/>
<path d="M5000 2180 c-18 -12 -2 -12 25 0 13 6 15 9 5 9 -8 0 -22 -4 -30 -9z"/>
<path d="M5682 2170 c0 -14 2 -19 5 -12 2 6 2 18 0 25 -3 6 -5 1 -5 -13z"/>
<path d="M496 2165 c-9 -26 -7 -32 5 -12 6 10 9 21 6 23 -2 3 -7 -2 -11 -11z"/>
<path d="M1616 2165 c-9 -26 -7 -32 5 -12 6 10 9 21 6 23 -2 3 -7 -2 -11 -11z"/>
<path d="M2910 2170 l-35 -7 32 -2 c17 0 35 4 38 9 3 6 5 9 3 9 -2 -1 -19 -5
-38 -9z"/>
<path d="M4640 2175 c0 -5 5 -17 10 -25 5 -8 10 -10 10 -5 0 6 -5 17 -10 25
-5 8 -10 11 -10 5z"/>
<path d="M5260 2161 c-5 -11 -10 -26 -10 -35 0 -16 34 -31 49 -22 5 4 12 0 14
-6 4 -8 6 -7 6 4 1 9 -3 20 -9 23 -5 3 -10 1 -10 -4 0 -16 -30 -13 -36 3 -3 8
-1 24 6 35 6 12 8 21 6 21 -3 0 -10 -9 -16 -19z"/>
<path d="M3971 2108 c-18 -90 -67 -183 -133 -254 -67 -71 -74 -87 -21 -47 73
55 150 197 172 316 13 70 -3 57 -18 -15z"/>
<path d="M4598 2163 c7 -3 16 -2 19 1 4 3 -2 6 -13 5 -11 0 -14 -3 -6 -6z"/>
<path d="M4955 2150 c-10 -11 -16 -22 -14 -24 2 -2 12 7 22 20 22 29 17 32 -8
4z"/>
<path d="M5016 2151 c-4 -5 3 -7 14 -4 23 6 26 13 6 13 -8 0 -17 -4 -20 -9z"/>
<path d="M5342 2140 c0 -14 2 -19 5 -12 2 6 2 18 0 25 -3 6 -5 1 -5 -13z"/>
<path d="M2430 2143 c-14 -3 -29 -9 -35 -14 -9 -9 35 -3 85 12 l25 7 -25 0
c-14 0 -36 -3 -50 -5z"/>
<path d="M4674 2134 c7 -24 -13 -34 -71 -34 -18 0 -33 -5 -33 -11 0 -6 7 -9
15 -5 8 3 15 0 15 -7 0 -8 3 -9 8 -1 11 17 43 13 38 -5 -3 -9 -7 -36 -10 -61
l-5 -45 13 50 c10 38 14 45 19 30 3 -11 4 -4 2 15 -4 28 -1 38 15 48 24 15 28
9 33 -58 3 -43 4 -43 5 10 1 30 -3 62 -8 70 -5 8 -10 11 -10 6 0 -5 -7 -2 -16
5 -15 12 -16 11 -10 -7z"/>
<path d="M5152 2130 c0 -14 2 -19 5 -12 2 6 2 18 0 25 -3 6 -5 1 -5 -13z"/>
<path d="M4553 2133 c-15 -6 -17 -39 -3 -48 6 -4 9 4 7 17 -2 20 4 24 38 29
l40 6 -35 1 c-19 0 -41 -2 -47 -5z"/>
<path d="M4980 2121 c-16 -31 -12 -77 11 -102 l21 -24 -16 25 c-18 28 -21 72
-6 101 6 10 8 19 6 19 -3 0 -10 -9 -16 -19z"/>
<path d="M5659 2123 c-13 -16 -12 -17 4 -4 16 13 21 21 13 21 -2 0 -10 -8 -17
-17z"/>
<path d="M5741 2124 c0 -11 3 -14 6 -6 3 7 2 16 -1 19 -3 4 -6 -2 -5 -13z"/>
<path d="M771 2104 c0 -11 3 -14 6 -6 3 7 2 16 -1 19 -3 4 -6 -2 -5 -13z"/>
<path d="M1073 2095 c-12 -14 -17 -27 -12 -31 5 -3 9 -1 9 4 0 4 9 18 20 30
12 12 17 22 13 22 -4 0 -18 -11 -30 -25z"/>
<path d="M1240 2106 c0 -3 9 -10 20 -16 11 -6 20 -8 20 -6 0 3 -9 10 -20 16
-11 6 -20 8 -20 6z"/>
<path d="M4932 2090 c0 -14 2 -19 5 -12 2 6 2 18 0 25 -3 6 -5 1 -5 -13z"/>
<path d="M5080 2104 c0 -5 9 -24 20 -42 11 -18 18 -38 14 -43 -3 -5 0 -8 7 -7
6 2 13 -2 16 -8 2 -6 -13 -19 -34 -27 -21 -9 -33 -16 -26 -16 7 -1 27 6 46 15
32 15 35 15 72 -10 21 -14 43 -26 49 -25 7 0 6 3 -1 6 -7 2 -14 21 -15 41 -1
36 -1 37 -5 5 -3 -23 -8 -30 -19 -26 -9 3 -14 22 -16 57 l-1 51 -6 -44 c-6
-41 -7 -43 -21 -27 -8 10 -14 32 -14 50 1 29 1 29 -3 3 -4 -23 -7 -26 -19 -16
-8 6 -14 17 -14 23 -1 13 -30 54 -30 40z"/>
<path d="M5351 2098 c-2 -31 11 -48 36 -48 13 0 21 -4 18 -10 -3 -5 -1 -10 4
-10 24 0 9 29 -16 32 -19 2 -29 10 -34 28 -4 14 -7 18 -8 8z"/>
<path d="M978 2093 c7 -3 16 -2 19 1 4 3 -2 6 -13 5 -11 0 -14 -3 -6 -6z"/>
<path d="M1165 2090 c27 -12 43 -12 25 0 -8 5 -22 9 -30 9 -10 0 -8 -3 5 -9z"/>
<path d="M4401 2073 c-10 -26 -10 -27 4 -9 8 11 15 23 15 28 0 15 -7 8 -19
-19z"/>
<path d="M5496 2083 c-6 -14 -5 -15 5 -6 7 7 10 15 7 18 -3 3 -9 -2 -12 -12z"/>
<path d="M5730 2091 c0 -6 -12 -23 -26 -37 -14 -15 -20 -24 -13 -22 18 6 54
56 46 65 -4 3 -7 1 -7 -6z"/>
<path d="M932 2083 c-7 -2 -17 -14 -23 -26 -11 -20 -10 -20 17 3 16 14 31 26
33 28 7 4 -14 1 -27 -5z"/>
<path d="M1018 2083 c7 -3 16 -2 19 1 4 3 -2 6 -13 5 -11 0 -14 -3 -6 -6z"/>
<path d="M762 2060 c0 -14 2 -19 5 -12 2 6 2 18 0 25 -3 6 -5 1 -5 -13z"/>
<path d="M1072 2042 c-12 -20 -22 -30 -23 -22 -2 28 -17 -35 -18 -77 -1 -37
-4 -42 -28 -46 -26 -4 -26 -4 5 -6 35 -1 45 -26 15 -34 -14 -4 -12 -5 5 -6 13
-1 22 5 22 13 0 8 3 22 7 32 4 12 3 15 -5 10 -24 -14 -12 59 18 113 34 61 35
81 2 23z"/>
<path d="M1304 2066 c11 -9 24 -16 30 -16 12 0 7 5 -24 19 -24 11 -24 11 -6
-3z"/>
<path d="M208 2063 c6 -2 18 -2 25 0 6 3 1 5 -13 5 -14 0 -19 -2 -12 -5z"/>
<path d="M1250 2060 c8 -5 20 -10 25 -10 6 0 3 5 -5 10 -8 5 -19 10 -25 10 -5
0 -3 -5 5 -10z"/>
<path d="M4580 2043 c0 -21 3 -24 9 -14 5 8 7 20 4 28 -8 21 -13 15 -13 -14z"/>
<path d="M5312 2054 c-7 -8 -8 -14 -3 -14 10 0 25 19 20 25 -2 1 -10 -3 -17
-11z"/>
<path d="M983 2053 c9 -2 25 -2 35 0 9 3 1 5 -18 5 -19 0 -27 -2 -17 -5z"/>
<path d="M4940 2049 c0 -22 41 -82 60 -86 9 -3 8 0 -3 7 -11 7 -27 31 -38 54
-10 22 -19 34 -19 25z"/>
<path d="M935 2030 c-10 -11 -16 -22 -14 -24 2 -2 12 7 22 20 22 29 17 32 -8
4z"/>
<path d="M1360 2040 c8 -5 22 -9 30 -9 10 0 8 3 -5 9 -27 12 -43 12 -25 0z"/>
<path d="M327 2029 c7 -7 15 -10 18 -7 3 3 -2 9 -12 12 -14 6 -15 5 -6 -5z"/>
<path d="M1330 2030 c8 -5 20 -10 25 -10 6 0 3 5 -5 10 -8 5 -19 10 -25 10 -5
0 -3 -5 5 -10z"/>
<path d="M4612 2020 c0 -14 2 -19 5 -12 2 6 2 18 0 25 -3 6 -5 1 -5 -13z"/>
<path d="M5277 2020 c6 -21 22 -24 63 -9 22 8 21 8 -8 4 -23 -3 -34 0 -38 10
-9 22 -23 18 -17 -5z"/>
<path d="M886 2014 c-9 -25 -7 -83 4 -105 12 -22 61 -49 87 -49 10 1 0 7 -22
15 -55 20 -67 40 -62 103 4 55 3 62 -7 36z"/>
<path d="M5459 2013 c-13 -16 -12 -17 4 -4 16 13 21 21 13 21 -2 0 -10 -8 -17
-17z"/>
<path d="M5638 2023 c6 -2 18 -2 25 0 6 3 1 5 -13 5 -14 0 -19 -2 -12 -5z"/>
<path d="M367 2009 c7 -7 15 -10 18 -7 3 3 -2 9 -12 12 -14 6 -15 5 -6 -5z"/>
<path d="M1380 2010 c8 -5 20 -10 25 -10 6 0 3 5 -5 10 -8 5 -19 10 -25 10 -5
0 -3 -5 5 -10z"/>
<path d="M4661 2013 c0 -5 4 -17 9 -28 8 -18 9 -17 9 8 1 15 -3 27 -9 27 -5 0
-10 -3 -9 -7z"/>
<path d="M5050 2000 c-35 -7 -35 -7 -5 -9 17 0 37 4 45 9 17 11 11 11 -40 0z"/>
<path d="M1440 1985 c14 -8 30 -14 35 -14 6 0 -1 6 -15 14 -14 8 -29 14 -35
14 -5 0 1 -6 15 -14z"/>
<path d="M1542 1984 c10 -10 20 -16 22 -13 3 3 -5 11 -17 18 -21 13 -21 12 -5
-5z"/>
<path d="M4267 1993 c-4 -3 -7 -13 -7 -22 1 -13 3 -13 11 2 11 19 8 33 -4 20z"/>
<path d="M4590 1980 c0 -19 3 -21 12 -12 9 9 9 15 0 24 -9 9 -12 7 -12 -12z"/>
<path d="M911 1968 c-1 -29 29 -68 52 -68 6 0 3 6 -8 12 -28 15 -26 13 -35 50
-8 31 -8 32 -9 6z"/>
<path d="M4551 1974 c0 -11 3 -14 6 -6 3 7 2 16 -1 19 -3 4 -6 -2 -5 -13z"/>
<path d="M4705 1980 c-3 -5 -1 -10 4 -10 6 0 11 5 11 10 0 6 -2 10 -4 10 -3 0
-8 -4 -11 -10z"/>
<path d="M5268 1958 c-4 -24 -2 -28 16 -28 13 0 16 3 10 8 -7 4 -14 16 -16 27
-3 17 -5 15 -10 -7z"/>
<path d="M692 1940 c-18 -17 -29 -30 -24 -30 5 0 21 14 37 30 37 38 30 38 -13
0z"/>
<path d="M1071 1943 c-10 -26 -10 -27 4 -9 8 11 15 23 15 28 0 15 -7 8 -19
-19z"/>
<path d="M1289 1938 c4 -32 5 -32 11 -8 7 26 4 40 -9 40 -4 0 -5 -15 -2 -32z"/>
<path d="M1491 1966 c2 -2 15 -9 29 -15 24 -11 24 -11 6 3 -16 13 -49 24 -35
12z"/>
<path d="M464 1952 c8 -13 66 -56 66 -49 0 3 -17 17 -37 33 -20 15 -33 23 -29
16z"/>
<path d="M1218 1942 c-16 -9 -28 -23 -28 -31 0 -12 3 -11 13 2 6 9 21 23 32
31 27 21 16 19 -17 -2z"/>
<path d="M4682 1935 c0 -16 2 -22 5 -12 2 9 2 23 0 30 -3 6 -5 -1 -5 -18z"/>
<path d="M4700 1943 c0 -13 5 -23 10 -23 13 0 13 11 0 30 -8 12 -10 11 -10 -7z"/>
<path d="M5028 1953 c6 -2 18 -2 25 0 6 3 1 5 -13 5 -14 0 -19 -2 -12 -5z"/>
<path d="M4561 1934 c0 -11 3 -14 6 -6 3 7 2 16 -1 19 -3 4 -6 -2 -5 -13z"/>
<path d="M140 1935 c0 -5 5 -17 10 -25 5 -8 10 -10 10 -5 0 6 -5 17 -10 25 -5
8 -10 11 -10 5z"/>
<path d="M5337 1933 c-4 -3 -7 -16 -6 -27 0 -20 1 -20 8 -1 4 11 19 23 32 26
l24 7 -26 1 c-14 1 -29 -2 -32 -6z"/>
<path d="M1508 1882 c-22 -60 -15 -67 7 -7 10 25 16 47 14 50 -3 2 -12 -17
-21 -43z"/>
<path d="M4602 1910 c0 -14 2 -19 5 -12 2 6 2 18 0 25 -3 6 -5 1 -5 -13z"/>
<path d="M5311 1905 c-1 -38 15 -55 51 -55 24 0 27 2 16 14 -9 10 -15 11 -20
2 -12 -18 -10 12 2 35 6 10 8 19 6 19 -3 0 -12 -12 -20 -27 l-14 -28 -10 35
-10 35 -1 -30z"/>
<path d="M5431 1914 c0 -11 3 -14 6 -6 3 7 2 16 -1 19 -3 4 -6 -2 -5 -13z"/>
<path d="M1476 1905 c-9 -26 -7 -32 5 -12 6 10 9 21 6 23 -2 3 -7 -2 -11 -11z"/>
<path d="M5452 1900 c-7 -12 -21 -24 -31 -28 -16 -6 -17 -9 -5 -20 11 -10 14
-10 14 0 0 8 9 21 20 31 11 9 20 21 20 27 0 15 -4 12 -18 -10z"/>
<path d="M1266 1854 c-19 -56 -20 -64 -5 -64 6 0 9 6 6 13 -2 6 2 30 10 51 7
22 11 41 9 43 -2 2 -11 -17 -20 -43z"/>
<path d="M4692 1880 c0 -14 2 -19 5 -12 2 6 2 18 0 25 -3 6 -5 1 -5 -13z"/>
<path d="M1200 1887 c0 -1 9 -10 19 -19 18 -15 19 -15 24 3 4 15 0 19 -19 19
-13 0 -24 -1 -24 -3z"/>
<path d="M1599 1864 c17 -14 31 -33 32 -42 0 -12 2 -13 6 -4 5 14 -43 72 -60
72 -5 0 5 -12 22 -26z"/>
<path d="M3515 1873 c-241 -32 -497 -74 -696 -114 -136 -27 -249 -49 -253 -49
-3 0 -6 -4 -6 -9 0 -4 26 -2 58 5 134 32 531 104 707 129 249 34 301 43 255
42 -19 0 -48 -2 -65 -4z"/>
<path d="M570 1854 c-14 -8 -18 -13 -10 -11 8 3 31 -10 50 -27 l35 -31 -29 32
c-15 17 -25 36 -22 42 9 14 6 14 -24 -5z"/>
<path d="M1075 1851 c-3 -12 -11 -19 -16 -16 -28 18 5 -42 49 -87 28 -30 33
-40 23 -51 -6 -8 -10 -30 -9 -50 3 -29 5 -33 17 -24 12 10 14 9 9 -3 -17 -47
-16 -60 2 -26 22 44 24 50 12 42 -4 -2 -14 -1 -22 4 -12 7 -12 13 0 34 7 14
19 26 26 26 7 0 10 8 7 21 -4 15 -8 17 -14 8 -11 -19 -70 37 -62 59 4 10 2 13
-5 8 -18 -11 -25 19 -12 44 6 12 9 24 7 27 -3 2 -8 -5 -12 -16z"/>
<path d="M1556 1851 c18 -11 34 -25 37 -33 3 -8 6 -9 6 -1 1 13 -46 53 -63 53
-6 0 3 -9 20 -19z"/>
<path d="M4612 1845 c0 -16 2 -22 5 -12 2 9 2 23 0 30 -3 6 -5 -1 -5 -18z"/>
<path d="M6054 1849 c-10 -17 13 -36 27 -22 12 12 4 33 -11 33 -5 0 -12 -5
-16 -11z"/>
<path d="M210 1835 c0 -8 61 -36 70 -33 5 2 -9 11 -30 20 -22 9 -40 15 -40 13z"/>
<path d="M1216 1823 c-6 -14 -5 -15 5 -6 7 7 10 15 7 18 -3 3 -9 -2 -12 -12z"/>
<path d="M4698 1808 c-2 -26 -8 -34 -27 -36 -15 -3 -30 3 -38 14 -27 37 -14
-20 14 -64 28 -43 53 -55 53 -24 0 13 -2 14 -9 4 -6 -11 -13 -7 -30 14 -28 35
-27 41 9 46 23 4 30 0 33 -16 2 -12 5 5 6 37 1 61 -6 78 -11 25z"/>
<path d="M5378 1785 c5 -55 12 -73 12 -32 0 14 3 33 7 43 4 11 3 15 -5 10 -6
-3 -12 2 -15 11 -2 10 -2 -4 1 -32z"/>
<path d="M1152 1809 c-7 -12 -11 -24 -8 -27 3 -3 6 0 6 7 0 21 20 1 21 -22 1
-17 2 -18 6 -4 3 13 11 16 31 12 24 -5 23 -4 -5 9 -34 16 -42 31 -20 39 8 4 7
6 -3 6 -8 1 -21 -8 -28 -20z"/>
<path d="M1456 1776 c-14 -25 -40 -55 -58 -67 -37 -27 -121 -37 -169 -20 -18
6 -34 9 -37 7 -2 -3 14 -10 37 -17 23 -7 41 -16 41 -21 0 -5 9 -4 19 2 11 5
28 10 38 10 10 0 36 9 57 19 37 19 38 19 69 0 18 -10 37 -19 42 -19 6 1 -7 10
-27 21 -36 18 -47 33 -30 41 8 4 55 88 49 88 -3 0 -17 -20 -31 -44z"/>
<path d="M383 1793 c9 -2 23 -2 30 0 6 3 -1 5 -18 5 -16 0 -22 -2 -12 -5z"/>
<path d="M1601 1784 c0 -11 3 -14 6 -6 3 7 2 16 -1 19 -3 4 -6 -2 -5 -13z"/>
<path d="M5440 1792 c0 -6 15 -31 34 -55 19 -25 31 -49 28 -53 -4 -4 4 -4 18
-1 14 4 32 7 40 8 8 1 -1 4 -20 8 -28 5 -42 16 -67 55 -18 26 -33 44 -33 38z"/>
<path d="M1031 1782 c-1 -14 27 -72 35 -72 2 0 -2 12 -9 28 -8 15 -17 34 -20
42 -4 10 -6 11 -6 2z"/>
<path d="M1284 1770 c0 -11 4 -20 8 -20 4 0 8 9 8 20 0 11 -4 20 -8 20 -4 0
-8 -9 -8 -20z"/>
<path d="M4175 1781 c-3 -6 -19 -35 -35 -67 -17 -31 -50 -85 -75 -120 -24 -35
-40 -64 -35 -64 15 0 128 177 150 234 9 26 7 35 -5 17z"/>
<path d="M1396 1765 c-11 -8 -15 -15 -9 -15 6 0 16 7 23 15 16 19 11 19 -14 0z"/>
<path d="M1631 1773 c-1 -6 -4 -20 -7 -30 -5 -17 -5 -17 6 0 6 10 9 23 6 30
-3 9 -5 9 -5 0z"/>
<path d="M5420 1773 c0 -5 10 -18 23 -29 l22 -19 -20 25 c-11 14 -21 27 -22
29 -2 2 -3 0 -3 -6z"/>
<path d="M5920 1755 c0 -10 7 -15 18 -13 21 4 19 22 -2 26 -10 2 -16 -3 -16
-13z"/>
<path d="M1577 1734 c-12 -16 -29 -24 -50 -25 -18 -1 -24 -3 -14 -6 29 -8 65
5 78 28 15 30 7 31 -14 3z"/>
<path d="M1267 1721 c-4 -17 -3 -21 5 -13 5 5 8 16 6 23 -3 8 -7 3 -11 -10z"/>
<path d="M1467 1719 c7 -7 15 -10 18 -7 3 3 -2 9 -12 12 -14 6 -15 5 -6 -5z"/>
<path d="M699 1705 c5 -11 17 -29 26 -40 l16 -20 -10 20 c-5 11 -17 29 -26 40
l-16 20 10 -20z"/>
<path d="M1318 1713 c7 -3 16 -2 19 1 4 3 -2 6 -13 5 -11 0 -14 -3 -6 -6z"/>
<path d="M1593 1699 c-11 -12 -36 -25 -54 -29 -32 -8 -33 -8 -6 -9 30 -1 72
22 81 45 7 19 4 18 -21 -7z"/>
<path d="M5370 1696 c-5 -13 -19 -31 -32 -40 -27 -19 -21 -19 57 -2 33 8 52
14 42 15 -14 1 -17 6 -12 24 5 18 3 17 -10 -5 -9 -16 -22 -28 -30 -28 -19 0
-19 10 1 38 9 13 11 22 4 22 -6 0 -15 -11 -20 -24z"/>
<path d="M258 1655 c-53 -38 -78 -63 -82 -82 -4 -16 -9 -36 -12 -45 -4 -15 1
-18 28 -17 23 1 26 3 11 6 -16 3 -23 12 -23 27 0 38 12 38 54 -1 l41 -38 -37
40 c-21 23 -38 45 -38 51 0 5 21 24 48 42 26 17 57 39 70 48 21 16 24 15 45
-2 l22 -19 -19 23 c-11 12 -22 22 -25 22 -4 0 -41 -25 -83 -55z"/>
<path d="M5587 1689 c4 -12 0 -25 -8 -31 -12 -8 -11 -9 1 -5 17 4 27 57 12 57
-6 0 -8 -9 -5 -21z"/>
<path d="M5792 1673 c5 -25 28 -28 28 -4 0 12 -6 21 -16 21 -9 0 -14 -7 -12
-17z"/>
<path d="M1156 1663 c-6 -14 -5 -15 5 -6 7 7 10 15 7 18 -3 3 -9 -2 -12 -12z"/>
<path d="M5468 1673 c7 -3 16 -2 19 1 4 3 -2 6 -13 5 -11 0 -14 -3 -6 -6z"/>
<path d="M5211 1644 c-12 -15 -21 -32 -21 -38 0 -6 6 -2 12 9 6 11 18 28 26
38 8 9 12 17 9 17 -3 0 -15 -12 -26 -26z"/>
<path d="M1350 1650 c-23 -7 -23 -8 -3 -9 12 -1 25 4 28 9 3 6 5 10 3 9 -2 -1
-14 -5 -28 -9z"/>
<path d="M1742 1640 c0 -14 2 -19 5 -12 2 6 2 18 0 25 -3 6 -5 1 -5 -13z"/>
<path d="M419 1615 c161 -209 202 -267 198 -279 -6 -14 -166 -132 -205 -149
-21 -10 -27 -9 -38 8 -31 47 -44 56 -21 15 14 -24 29 -46 34 -47 13 -5 238
156 241 173 4 15 -132 200 -204 279 l-36 40 31 -40z"/>
<path d="M1235 1640 c-3 -5 -1 -10 4 -10 6 0 11 5 11 10 0 6 -2 10 -4 10 -3 0
-8 -4 -11 -10z"/>
<path d="M5518 1643 c6 -2 18 -2 25 0 6 3 1 5 -13 5 -14 0 -19 -2 -12 -5z"/>
<path d="M1256 1624 c-17 -12 -17 -14 -4 -14 9 0 20 5 23 11 11 17 2 18 -19 3z"/>
<path d="M5285 1630 c-3 -6 1 -7 9 -4 18 7 21 14 7 14 -6 0 -13 -4 -16 -10z"/>
<path d="M5468 1633 c6 -2 18 -2 25 0 6 3 1 5 -13 5 -14 0 -19 -2 -12 -5z"/>
<path d="M5408 1623 c6 -2 18 -2 25 0 6 3 1 5 -13 5 -14 0 -19 -2 -12 -5z"/>
<path d="M1186 1612 c6 -4 14 -14 17 -22 4 -10 6 -8 6 8 1 15 -5 22 -16 22
-11 0 -14 -3 -7 -8z"/>
<path d="M5353 1613 c9 -2 23 -2 30 0 6 3 -1 5 -18 5 -16 0 -22 -2 -12 -5z"/>
<path d="M295 1590 c-16 -11 -25 -20 -20 -20 10 0 64 39 55 40 -3 0 -18 -9
-35 -20z"/>
<path d="M1762 1590 c0 -14 2 -19 5 -12 2 6 2 18 0 25 -3 6 -5 1 -5 -13z"/>
<path d="M5298 1603 c7 -3 16 -2 19 1 4 3 -2 6 -13 5 -11 0 -14 -3 -6 -6z"/>
<path d="M5666 1603 c-12 -12 -6 -33 9 -33 8 0 15 6 15 14 0 17 -14 28 -24 19z"/>
<path d="M6034 1589 c-10 -17 13 -36 27 -22 12 12 4 33 -11 33 -5 0 -12 -5
-16 -11z"/>
<path d="M1056 1541 l-30 -36 34 32 c19 18 32 34 29 36 -2 2 -17 -12 -33 -32z"/>
<path d="M1166 1565 c-3 -9 -5 -35 -5 -58 2 -40 2 -39 9 13 7 59 6 71 -4 45z"/>
<path d="M1192 1550 c0 -14 2 -19 5 -12 2 6 2 18 0 25 -3 6 -5 1 -5 -13z"/>
<path d="M4343 1535 c0 -22 2 -30 4 -17 2 12 2 30 0 40 -3 9 -5 -1 -4 -23z"/>
<path d="M780 1555 c0 -5 5 -17 10 -25 5 -8 10 -10 10 -5 0 6 -5 17 -10 25 -5
8 -10 11 -10 5z"/>
<path d="M369 1533 c-13 -16 -12 -17 4 -4 9 7 17 15 17 17 0 8 -8 3 -21 -13z"/>
<path d="M1811 1524 c0 -11 3 -14 6 -6 3 7 2 16 -1 19 -3 4 -6 -2 -5 -13z"/>
<path d="M1086 1499 c-27 -28 -34 -31 -74 -26 -33 3 -45 1 -49 -10 -3 -8 0
-19 8 -24 23 -14 34 -10 13 5 -26 20 -14 28 25 16 28 -8 38 -6 59 11 23 18 58
59 50 59 -2 0 -16 -14 -32 -31z"/>
<path d="M310 1495 c-19 -14 -30 -25 -24 -25 10 1 73 50 63 50 -3 0 -20 -11
-39 -25z"/>
<path d="M5904 1509 c-8 -14 11 -33 25 -25 6 4 11 11 11 16 0 13 -29 20 -36 9z"/>
<path d="M591 1472 c81 -103 86 -127 37 -182 -30 -32 -29 -32 10 5 25 24 42
48 42 62 0 12 -20 46 -46 75 -64 73 -84 92 -43 40z"/>
<path d="M207 1450 c15 -28 36 -60 47 -73 l18 -22 -14 25 c-8 14 -27 46 -42
73 -15 26 -30 47 -33 47 -2 0 8 -23 24 -50z"/>
<path d="M359 1479 c-23 -19 -23 -20 -2 -10 12 6 25 16 28 21 10 16 -1 12 -26
-11z"/>
<path d="M4638 1493 c6 -2 18 -2 25 0 6 3 1 5 -13 5 -14 0 -19 -2 -12 -5z"/>
<path d="M6035 1475 c-39 -32 -29 -32 15 0 19 14 30 25 24 25 -5 -1 -22 -12
-39 -25z"/>
<path d="M14 1479 c-10 -17 13 -36 27 -22 12 12 4 33 -11 33 -5 0 -12 -5 -16
-11z"/>
<path d="M1802 1470 c0 -14 2 -19 5 -12 2 6 2 18 0 25 -3 6 -5 1 -5 -13z"/>
<path d="M4332 1470 c0 -14 2 -19 5 -12 2 6 2 18 0 25 -3 6 -5 1 -5 -13z"/>
<path d="M4784 1478 c21 -8 25 -13 15 -19 -10 -6 -7 -9 11 -9 l25 1 -24 19
c-13 11 -31 20 -40 19 -9 0 -3 -5 13 -11z"/>
<path d="M4973 1473 c9 -2 25 -2 35 0 9 3 1 5 -18 5 -19 0 -27 -2 -17 -5z"/>
<path d="M4858 1463 c7 -3 16 -2 19 1 4 3 -2 6 -13 5 -11 0 -14 -3 -6 -6z"/>
<path d="M5148 1453 c6 -2 18 -2 25 0 6 3 1 5 -13 5 -14 0 -19 -2 -12 -5z"/>
<path d="M1194 1433 c2 -12 -1 -24 -8 -27 -6 -2 -3 -5 6 -5 9 -1 25 -4 35 -7
17 -5 17 -5 0 6 -10 6 -23 21 -28 33 l-10 22 5 -22z"/>
<path d="M3865 1409 c-33 -21 -54 -39 -47 -39 12 0 122 69 122 76 0 9 -19 0
-75 -37z"/>
<path d="M411 1399 c-33 -22 -61 -43 -61 -45 0 -6 1 -6 71 42 59 39 65 44 57
44 -3 0 -33 -18 -67 -41z"/>
<path d="M4272 1420 c0 -14 2 -19 5 -12 2 6 2 18 0 25 -3 6 -5 1 -5 -13z"/>
<path d="M4690 1430 c-8 -5 -10 -10 -5 -10 6 0 17 5 25 10 8 5 11 10 5 10 -5
0 -17 -5 -25 -10z"/>
<path d="M190 1426 c0 -11 62 -127 66 -123 2 2 -12 32 -31 68 -19 35 -35 60
-35 55z"/>
<path d="M1020 1422 c8 -5 26 -13 40 -16 17 -5 20 -4 10 2 -8 5 -26 13 -40 16
-17 5 -20 4 -10 -2z"/>
<path d="M4252 1410 c0 -14 2 -19 5 -12 2 6 2 18 0 25 -3 6 -5 1 -5 -13z"/>
<path d="M5770 1415 c0 -10 7 -15 18 -13 21 4 19 22 -2 26 -10 2 -16 -3 -16
-13z"/>
<path d="M5915 1400 c-3 -6 1 -7 9 -4 18 7 21 14 7 14 -6 0 -13 -4 -16 -10z"/>
<path d="M435 1375 c-39 -32 -29 -32 15 0 19 14 30 25 24 25 -5 -1 -22 -12
-39 -25z"/>
<path d="M4841 1364 c-6 -21 -9 -40 -6 -42 2 -2 8 13 14 34 6 21 9 40 6 42 -2
2 -8 -13 -14 -34z"/>
<path d="M1130 1380 c8 -5 20 -10 25 -10 6 0 3 5 -5 10 -8 5 -19 10 -25 10 -5
0 -3 -5 5 -10z"/>
<path d="M1256 1375 c4 -8 10 -12 15 -9 11 6 2 24 -11 24 -5 0 -7 -7 -4 -15z"/>
<path d="M1668 1383 c12 -2 32 -2 45 0 12 2 2 4 -23 4 -25 0 -35 -2 -22 -4z"/>
<path d="M5875 1380 c-3 -5 -2 -10 4 -10 5 0 13 5 16 10 3 6 2 10 -4 10 -5 0
-13 -4 -16 -10z"/>
<path d="M4242 1355 c0 -16 2 -22 5 -12 2 9 2 23 0 30 -3 6 -5 -1 -5 -18z"/>
<path d="M5420 1370 c8 -5 20 -10 25 -10 6 0 3 5 -5 10 -8 5 -19 10 -25 10 -5
0 -3 -5 5 -10z"/>
<path d="M5950 1357 c-14 -12 -39 -32 -55 -45 -17 -13 -23 -20 -15 -16 14 7
82 56 105 76 6 5 6 8 0 8 -6 0 -21 -11 -35 -23z"/>
<path d="M455 1344 l-30 -26 33 22 c17 12 32 23 32 26 0 7 -4 5 -35 -22z"/>
<path d="M4496 1355 c-3 -9 -6 -22 -5 -28 0 -7 5 -1 10 12 5 13 8 26 5 28 -2
2 -6 -3 -10 -12z"/>
<path d="M291 1315 c12 -22 26 -44 32 -50 15 -16 -20 48 -38 70 -9 11 -7 2 6
-20z"/>
<path d="M1238 1343 c7 -3 16 -2 19 1 4 3 -2 6 -13 5 -11 0 -14 -3 -6 -6z"/>
<path d="M1530 1329 c-17 -13 -18 -17 -5 -10 33 17 51 31 40 31 -5 0 -21 -10
-35 -21z"/>
<path d="M1847 1339 c7 -7 15 -10 18 -7 3 3 -2 9 -12 12 -14 6 -15 5 -6 -5z"/>
<path d="M4576 1335 c-9 -26 -7 -32 5 -12 6 10 9 21 6 23 -2 3 -7 -2 -11 -11z"/>
<path d="M5758 1333 c7 -3 16 -2 19 1 4 3 -2 6 -13 5 -11 0 -14 -3 -6 -6z"/>
<path d="M6017 1334 c-13 -13 -7 -24 14 -24 11 0 19 5 17 12 -5 14 -22 21 -31
12z"/>
<path d="M5578 1323 c6 -2 18 -2 25 0 6 3 1 5 -13 5 -14 0 -19 -2 -12 -5z"/>
<path d="M123 1298 c2 -7 10 -13 17 -13 7 0 15 6 18 13 2 7 -5 12 -18 12 -13
0 -20 -5 -17 -12z"/>
<path d="M1930 1287 c0 -2 15 -16 33 -33 l32 -29 -29 33 c-28 30 -36 37 -36
29z"/>
<path d="M801 1244 c0 -11 3 -14 6 -6 3 7 2 16 -1 19 -3 4 -6 -2 -5 -13z"/>
<path d="M1430 1245 c-8 -9 -8 -15 -2 -15 12 0 26 19 19 26 -2 2 -10 -2 -17
-11z"/>
<path d="M5238 1240 c-20 -11 -46 -33 -57 -49 -25 -35 -53 -110 -46 -121 3 -5
1 -11 -5 -15 -5 -3 -10 -14 -10 -23 0 -13 5 -12 21 8 19 23 19 23 9 2 -7 -14
-7 -28 -2 -38 7 -12 14 1 27 54 9 39 14 76 9 83 -4 7 -3 9 3 6 6 -4 13 7 17
25 l6 32 35 -34 35 -34 0 56 c0 45 3 57 18 61 14 4 14 5 -3 5 -11 1 -37 -8
-57 -18z m32 -40 l0 -41 -27 26 c-27 25 -28 26 -9 40 30 23 36 18 36 -25z
m-114 -112 c-9 -12 -16 -19 -16 -15 0 11 24 47 28 42 2 -2 -3 -14 -12 -27z"/>
<path d="M5884 1249 c-10 -17 13 -36 27 -22 12 12 4 33 -11 33 -5 0 -12 -5
-16 -11z"/>
<path d="M4764 1218 l-29 -33 33 29 c30 28 37 36 29 36 -2 0 -16 -15 -33 -32z"/>
<path d="M5348 1243 c7 -3 16 -2 19 1 4 3 -2 6 -13 5 -11 0 -14 -3 -6 -6z"/>
<path d="M280 1231 c0 -6 4 -13 10 -16 6 -3 7 1 4 9 -7 18 -14 21 -14 7z"/>
<path d="M5398 1233 c6 -2 18 -2 25 0 6 3 1 5 -13 5 -14 0 -19 -2 -12 -5z"/>
<path d="M0 1211 c0 -14 5 -19 15 -14 17 6 15 25 -3 31 -7 2 -12 -5 -12 -17z"/>
<path d="M5446 1222 c7 -4 14 -18 17 -32 4 -21 4 -20 6 8 1 24 -3 32 -16 32
-12 0 -14 -3 -7 -8z"/>
<path d="M4480 1203 c0 -6 9 -21 21 -34 l20 -24 -17 30 c-24 39 -24 40 -24 28z"/>
<path d="M1703 1193 c9 -2 23 -2 30 0 6 3 -1 5 -18 5 -16 0 -22 -2 -12 -5z"/>
<path d="M1767 1184 c5 -13 -2 -15 -38 -14 -59 2 -69 1 -69 -7 0 -5 32 -6 71
-5 64 3 71 2 65 -13 -4 -13 -2 -16 9 -11 12 4 15 -6 15 -63 0 -38 -5 -72 -10
-74 -6 -3 -5 -4 2 -3 9 2 14 27 16 77 3 72 2 76 -23 89 -14 7 -25 19 -25 27 0
7 -4 13 -10 13 -5 0 -7 -7 -3 -16z"/>
<path d="M2216 1185 c-3 -9 -6 -22 -5 -28 0 -7 5 -1 10 12 5 13 8 26 5 28 -2
2 -6 -3 -10 -12z"/>
<path d="M2240 1163 c-23 -58 -23 -61 0 -20 12 21 20 43 18 48 -2 6 -10 -7
-18 -28z"/>
<path d="M3802 1175 c-17 -37 -14 -45 4 -12 9 16 14 31 11 33 -2 2 -9 -7 -15
-21z"/>
<path d="M4604 1186 c11 -9 27 -16 35 -15 14 0 14 1 1 6 -8 3 -24 10 -35 15
-20 9 -20 9 -1 -6z"/>
<path d="M4825 1180 c-3 -11 -18 -29 -32 -40 -14 -11 -21 -20 -15 -20 12 0 62
57 62 71 0 16 -8 10 -15 -11z"/>
<path d="M3306 1173 c-6 -14 -5 -15 5 -6 7 7 10 15 7 18 -3 3 -9 -2 -12 -12z"/>
<path d="M5335 1170 c11 -5 27 -9 35 -9 9 0 8 4 -5 9 -11 5 -27 9 -35 9 -9 0
-8 -4 5 -9z"/>
<path d="M2031 1165 c0 -5 6 -21 14 -35 8 -14 14 -20 14 -15 0 6 -6 21 -14 35
-8 14 -14 21 -14 15z"/>
<path d="M3254 1135 c-9 -14 -15 -27 -13 -30 3 -2 12 10 21 26 21 36 15 39 -8
4z"/>
<path d="M2514 1138 c-4 -7 -14 -24 -22 -38 -14 -24 -13 -24 3 -5 20 24 37 55
31 55 -3 0 -8 -6 -12 -12z"/>
<path d="M3270 1110 c-11 -22 -18 -40 -15 -40 2 0 14 18 25 40 11 22 18 40 15
40 -2 0 -14 -18 -25 -40z"/>
<path d="M1660 1128 c0 -5 7 -8 15 -8 12 0 15 -15 15 -72 1 -66 2 -71 15 -54
8 11 15 27 14 35 0 11 -3 10 -8 -4 -6 -13 -7 -3 -6 30 3 66 3 64 23 61 9 -2
26 0 37 4 13 5 0 9 -43 11 -34 2 -62 1 -62 -3z"/>
<path d="M5453 1105 c0 -22 2 -30 4 -17 2 12 2 30 0 40 -3 9 -5 -1 -4 -23z"/>
<path d="M122 1105 c0 -16 2 -22 5 -12 2 9 2 23 0 30 -3 6 -5 -1 -5 -18z"/>
<path d="M722 1080 c-13 -16 -19 -30 -14 -30 4 0 16 14 25 30 10 17 16 30 14
30 -2 0 -13 -13 -25 -30z"/>
<path d="M1754 1065 c-3 -25 -4 -49 0 -52 3 -4 7 5 7 18 1 15 5 9 9 -16 6 -36
7 -32 9 28 1 76 -14 90 -25 22z"/>
<path d="M3794 1085 c-9 -13 -14 -28 -12 -33 1 -5 10 6 19 24 19 40 16 44 -7
9z"/>
<path d="M1711 1090 c0 -8 4 -22 9 -30 12 -18 12 -2 0 25 -6 13 -9 15 -9 5z"/>
<path d="M2515 1069 c-9 -17 -15 -33 -13 -35 3 -2 12 12 21 31 21 43 13 47 -8
4z"/>
<path d="M3509 1083 c-13 -17 -13 -17 6 -3 11 8 22 16 24 17 2 2 0 3 -6 3 -6
0 -17 -8 -24 -17z"/>
<path d="M5278 1093 c6 -2 18 -2 25 0 6 3 1 5 -13 5 -14 0 -19 -2 -12 -5z"/>
<path d="M5328 1083 c7 -3 16 -2 19 1 4 3 -2 6 -13 5 -11 0 -14 -3 -6 -6z"/>
<path d="M3900 1072 c0 -4 58 -66 130 -137 102 -102 132 -127 142 -117 9 9 8
12 -8 12 -17 0 -191 166 -234 223 -13 18 -11 19 36 13 36 -4 41 -3 19 3 -40
11 -85 13 -85 3z"/>
<path d="M5368 1073 c7 -3 16 -2 19 1 4 3 -2 6 -13 5 -11 0 -14 -3 -6 -6z"/>
<path d="M5990 1065 c0 -8 9 -15 20 -15 11 0 20 7 20 15 0 8 -9 15 -20 15 -11
0 -20 -7 -20 -15z"/>
<path d="M970 1054 c0 -11 6 -29 14 -40 13 -16 17 -17 28 -5 10 10 10 12 0 7
-8 -5 -17 4 -27 26 -11 24 -14 28 -15 12z"/>
<path d="M4028 1053 c6 -2 18 -2 25 0 6 3 1 5 -13 5 -14 0 -19 -2 -12 -5z"/>
<path d="M5443 1025 c0 -22 2 -30 4 -17 2 12 2 30 0 40 -3 9 -5 -1 -4 -23z"/>
<path d="M1000 1046 c0 -2 7 -7 16 -10 8 -3 12 -2 9 4 -6 10 -25 14 -25 6z"/>
<path d="M4088 1043 c6 -2 18 -2 25 0 6 3 1 5 -13 5 -14 0 -19 -2 -12 -5z"/>
<path d="M5328 1043 c7 -3 16 -2 19 1 4 3 -2 6 -13 5 -11 0 -14 -3 -6 -6z"/>
<path d="M5483 1005 c0 -27 2 -38 4 -22 2 15 2 37 0 50 -2 12 -4 0 -4 -28z"/>
<path d="M2762 1020 c-18 -29 -15 -42 6 -22 11 9 17 21 14 26 -3 5 12 6 34 3
27 -5 33 -4 19 3 -33 15 -59 11 -73 -10z"/>
<path d="M3642 1010 c0 -19 2 -27 5 -17 2 9 2 25 0 35 -3 9 -5 1 -5 -18z"/>
<path d="M4148 1033 c6 -2 18 -2 25 0 6 3 1 5 -13 5 -14 0 -19 -2 -12 -5z"/>
<path d="M1653 990 c0 -25 2 -35 4 -22 2 12 2 32 0 45 -2 12 -4 2 -4 -23z"/>
<path d="M4208 1023 c7 -3 16 -2 19 1 4 3 -2 6 -13 5 -11 0 -14 -3 -6 -6z"/>
<path d="M2073 980 c0 -25 2 -35 4 -22 2 12 2 32 0 45 -2 12 -4 2 -4 -23z"/>
<path d="M2868 1013 c7 -3 16 -2 19 1 4 3 -2 6 -13 5 -11 0 -14 -3 -6 -6z"/>
<path d="M4030 1018 c5 -5 208 -127 225 -136 6 -3 0 5 -12 17 -13 12 -23 27
-23 34 0 9 -3 8 -9 -1 -6 -11 -11 -10 -25 3 -22 23 -21 38 3 25 31 -16 43 -12
24 8 -10 10 -20 15 -23 11 -3 -5 -12 -4 -20 1 -8 6 -22 10 -30 10 -12 -1 -11
-3 3 -11 31 -18 18 -30 -14 -13 -25 13 -29 18 -18 26 11 8 11 9 -3 5 -9 -3
-18 -2 -20 3 -2 5 -16 12 -33 16 -16 4 -28 5 -25 2z"/>
<path d="M4258 1013 c6 -2 18 -2 25 0 6 3 1 5 -13 5 -14 0 -19 -2 -12 -5z"/>
<path d="M150 1004 c0 -10 49 -73 50 -63 0 3 -11 20 -25 39 -14 19 -25 30 -25
24z"/>
<path d="M2916 992 c19 -22 64 -30 64 -12 0 6 -12 8 -27 4 -22 -4 -25 -3 -13
5 9 6 10 11 3 11 -6 0 -19 3 -28 7 -16 5 -15 4 1 -15z"/>
<path d="M4308 1003 c6 -2 18 -2 25 0 6 3 1 5 -13 5 -14 0 -19 -2 -12 -5z"/>
<path d="M5114 998 c3 -10 1 -18 -4 -18 -6 0 -10 -8 -10 -17 0 -10 -9 -33 -20
-50 -18 -30 -18 -33 -2 -33 11 0 13 -3 6 -8 -6 -4 -14 -23 -18 -42 l-7 -35 17
30 c9 16 17 43 16 59 0 16 11 49 25 73 14 24 23 47 19 50 -3 4 -6 0 -6 -8 0
-12 -2 -11 -11 1 -9 13 -10 12 -5 -2z"/>
<path d="M610 969 c-35 -31 -35 -31 -3 -9 18 11 35 25 38 30 10 16 2 11 -35
-21z"/>
<path d="M3462 970 c0 -19 2 -27 5 -17 2 9 2 25 0 35 -3 9 -5 1 -5 -18z"/>
<path d="M3786 983 c-6 -14 -5 -15 5 -6 7 7 10 15 7 18 -3 3 -9 -2 -12 -12z"/>
<path d="M4368 993 c7 -3 16 -2 19 1 4 3 -2 6 -13 5 -11 0 -14 -3 -6 -6z"/>
<path d="M2781 958 c1 -24 3 -27 6 -10 3 16 11 22 30 22 31 0 28 5 -9 14 -26
6 -28 4 -27 -26z"/>
<path d="M4418 983 c7 -3 16 -2 19 1 4 3 -2 6 -13 5 -11 0 -14 -3 -6 -6z"/>
<path d="M2350 978 c0 -4 5 -19 12 -33 10 -23 9 -28 -13 -43 -13 -9 -28 -16
-32 -14 -5 1 -6 -2 -3 -7 4 -5 -8 -21 -26 -35 -18 -14 -28 -26 -23 -26 6 0 32
21 59 46 37 36 50 43 57 33 11 -18 11 -49 0 -49 -11 0 -91 -82 -91 -93 0 -5
12 5 26 22 14 17 30 29 35 25 5 -3 9 2 9 10 0 15 33 40 41 31 2 -2 10 8 17 23
9 20 9 23 0 14 -10 -10 -15 -7 -24 10 -11 20 -9 26 15 48 15 14 20 20 12 14
-35 -24 -40 -24 -55 3 -8 15 -15 25 -16 21z"/>
<path d="M2712 955 c0 -16 2 -22 5 -12 2 9 2 23 0 30 -3 6 -5 -1 -5 -18z"/>
<path d="M4468 973 c7 -3 16 -2 19 1 4 3 -2 6 -13 5 -11 0 -14 -3 -6 -6z"/>
<path d="M5141 964 c0 -11 3 -14 6 -6 3 7 2 16 -1 19 -3 4 -6 -2 -5 -13z"/>
<path d="M5432 950 c0 -19 2 -27 5 -17 2 9 2 25 0 35 -3 9 -5 1 -5 -18z"/>
<path d="M1800 955 c0 -8 5 -15 10 -15 6 0 10 7 10 15 0 8 -4 15 -10 15 -5 0
-10 -7 -10 -15z"/>
<path d="M2737 940 c-5 -23 -11 -28 -24 -24 -17 5 -17 5 0 -6 9 -6 17 -18 17
-25 0 -9 9 -15 23 -14 18 1 19 2 4 6 -16 4 -18 11 -12 49 7 49 1 60 -8 14z"/>
<path d="M2863 963 c9 -2 23 -2 30 0 6 3 -1 5 -18 5 -16 0 -22 -2 -12 -5z"/>
<path d="M4508 963 c6 -2 18 -2 25 0 6 3 1 5 -13 5 -14 0 -19 -2 -12 -5z"/>
<path d="M5233 963 c9 -2 23 -2 30 0 6 3 -1 5 -18 5 -16 0 -22 -2 -12 -5z"/>
<path d="M2918 953 c6 -2 18 -2 25 0 6 3 1 5 -13 5 -14 0 -19 -2 -12 -5z"/>
<path d="M3760 940 c-6 -11 -8 -20 -6 -20 3 0 10 9 16 20 6 11 8 20 6 20 -3 0
-10 -9 -16 -20z"/>
<path d="M5288 953 c7 -3 16 -2 19 1 4 3 -2 6 -13 5 -11 0 -14 -3 -6 -6z"/>
<path d="M1782 878 c-1 -50 -6 -78 -14 -81 -9 -4 -9 -6 -1 -6 6 -1 9 -11 7
-23 -4 -21 -4 -21 6 1 6 14 9 61 7 105 l-3 81 -2 -77z"/>
<path d="M2983 943 c9 -2 23 -2 30 0 6 3 -1 5 -18 5 -16 0 -22 -2 -12 -5z"/>
<path d="M4250 940 c8 -5 22 -10 30 -10 13 0 13 1 0 10 -8 5 -22 10 -30 10
-13 0 -13 -1 0 -10z"/>
<path d="M5328 943 c7 -3 16 -2 19 1 4 3 -2 6 -13 5 -11 0 -14 -3 -6 -6z"/>
<path d="M3073 929 c27 -8 37 -17 38 -32 1 -17 2 -18 6 -4 5 21 7 21 43 2 36
-19 37 -23 8 -35 -13 -5 -16 -9 -8 -9 23 -1 43 15 36 28 -12 18 -79 49 -121
55 l-40 5 38 -10z"/>
<path d="M4485 930 c-13 -5 -14 -9 -5 -9 8 0 24 4 35 9 13 5 14 9 5 9 -8 0
-24 -4 -35 -9z"/>
<path d="M5131 924 c0 -11 3 -14 6 -6 3 7 2 16 -1 19 -3 4 -6 -2 -5 -13z"/>
<path d="M2290 915 c0 -8 4 -15 10 -15 5 0 7 7 4 15 -4 8 -8 15 -10 15 -2 0
-4 -7 -4 -15z"/>
<path d="M4305 920 c3 -5 8 -10 11 -10 2 0 4 5 4 10 0 6 -5 10 -11 10 -5 0 -7
-4 -4 -10z"/>
<path d="M5987 912 c-18 -20 -23 -52 -8 -52 6 0 13 5 17 12 5 7 3 8 -5 3 -9
-5 -12 -2 -9 11 2 11 11 18 20 18 10 -1 14 4 11 12 -7 18 -7 18 -26 -4z"/>
<path d="M4274 898 c3 -30 22 -58 40 -58 10 0 66 -71 66 -84 0 -3 -22 10 -50
30 -27 20 -50 34 -50 31 0 -6 126 -97 134 -97 3 0 6 10 6 23 0 16 -3 18 -9 9
-9 -15 -36 22 -64 88 -9 19 -16 29 -16 23 -2 -25 -21 -13 -40 25 -18 33 -19
34 -17 10z"/>
<path d="M4355 909 c40 -16 39 -13 46 -72 l6 -52 2 57 c0 34 6 58 14 61 6 3 1
5 -13 5 -14 -1 -38 2 -55 6 l-30 6 30 -11z"/>
<path d="M5308 913 c6 -2 18 -2 25 0 6 3 1 5 -13 5 -14 0 -19 -2 -12 -5z"/>
<path d="M840 895 c-10 -12 -16 -13 -28 -3 -13 11 -14 11 -8 0 4 -7 2 -19 -4
-28 -10 -12 -16 -12 -28 -2 -13 11 -14 11 -7 -2 4 -8 17 -27 27 -42 18 -26 18
-27 -9 -60 l-27 -33 31 28 30 28 21 -33 c12 -18 22 -29 22 -25 0 5 -10 23 -22
39 l-21 31 39 34 c21 19 29 30 18 24 -17 -8 -25 -7 -34 4 -10 13 -9 19 5 35
10 11 16 20 13 20 -3 0 -11 -7 -18 -15z m-4 -50 c4 -8 0 -22 -7 -31 -12 -14
-14 -14 -26 2 -9 13 -10 21 -2 31 15 17 28 17 35 -2z"/>
<path d="M3605 879 c-9 -17 -15 -33 -13 -35 3 -2 12 12 21 31 21 43 13 47 -8
4z"/>
<path d="M5422 885 c0 -16 2 -22 5 -12 2 9 2 23 0 30 -3 6 -5 -1 -5 -18z"/>
<path d="M288 893 c7 -3 16 -2 19 1 4 3 -2 6 -13 5 -11 0 -14 -3 -6 -6z"/>
<path d="M448 893 c7 -3 16 -2 19 1 4 3 -2 6 -13 5 -11 0 -14 -3 -6 -6z"/>
<path d="M2798 893 c6 -2 18 -2 25 0 6 3 1 5 -13 5 -14 0 -19 -2 -12 -5z"/>
<path d="M328 883 c7 -3 16 -2 19 1 4 3 -2 6 -13 5 -11 0 -14 -3 -6 -6z"/>
<path d="M2858 883 c6 -2 18 -2 25 0 6 3 1 5 -13 5 -14 0 -19 -2 -12 -5z"/>
<path d="M5298 883 c6 -2 18 -2 25 0 6 3 1 5 -13 5 -14 0 -19 -2 -12 -5z"/>
<path d="M1652 850 c0 -19 2 -27 5 -17 2 9 2 25 0 35 -3 9 -5 1 -5 -18z"/>
<path d="M1702 835 c-1 -27 3 -57 9 -65 8 -12 9 -10 4 7 -5 19 -3 22 12 17 17
-6 17 -6 1 7 -9 8 -19 30 -21 49 -3 28 -4 24 -5 -15z"/>
<path d="M2908 873 c6 -2 18 -2 25 0 6 3 1 5 -13 5 -14 0 -19 -2 -12 -5z"/>
<path d="M1197 863 c-4 -3 -7 -21 -7 -40 0 -20 -6 -36 -14 -39 -8 -3 -16 -14
-19 -25 -5 -18 3 -23 30 -20 9 1 13 -28 16 -101 l3 -103 2 102 2 102 28 4 c16
2 9 5 -20 6 -47 1 -66 18 -30 28 14 3 17 12 14 43 -3 31 0 39 15 43 13 3 14 5
2 6 -9 0 -19 -2 -22 -6z"/>
<path d="M1263 859 c9 -5 17 -18 18 -27 0 -11 2 -12 6 -4 6 15 -14 42 -31 42
-6 0 -3 -5 7 -11z"/>
<path d="M2958 863 c6 -2 18 -2 25 0 6 3 1 5 -13 5 -14 0 -19 -2 -12 -5z"/>
<path d="M3080 854 c-24 -13 -24 -14 20 -12 25 0 35 3 22 5 -12 2 -20 9 -17
14 7 11 7 11 -25 -7z"/>
<path d="M5112 849 c-2 -27 -29 -59 -50 -59 -7 0 -12 -4 -12 -9 0 -12 39 -25
47 -17 4 3 1 6 -7 6 -10 0 -10 3 0 15 12 15 50 21 50 8 0 -3 -7 -14 -16 -24
-15 -16 -12 -17 50 -21 36 -1 76 0 88 4 16 4 7 6 -26 7 -45 1 -47 2 -35 19 13
16 13 16 -7 0 -11 -10 -31 -18 -44 -18 -19 0 -20 2 -10 15 7 8 22 15 34 16 23
1 16 4 -26 13 -21 5 -28 13 -31 39 -3 26 -4 27 -5 6z"/>
<path d="M3008 853 c6 -2 18 -2 25 0 6 3 1 5 -13 5 -14 0 -19 -2 -12 -5z"/>
<path d="M6060 798 c-67 -71 -82 -88 -54 -65 11 9 27 17 34 17 7 0 10 3 6 7
-3 4 12 26 36 50 23 23 40 44 37 45 -2 2 -29 -23 -59 -54z"/>
<path d="M2051 834 c0 -11 3 -14 6 -6 3 7 2 16 -1 19 -3 4 -6 -2 -5 -13z"/>
<path d="M3517 805 l18 -37 -30 -25 c-17 -14 -21 -20 -9 -14 39 19 48 38 34
71 -7 17 -17 33 -21 36 -5 3 -1 -11 8 -31z"/>
<path d="M4200 836 c0 -8 71 -12 76 -4 3 4 -13 8 -35 8 -23 0 -41 -2 -41 -4z"/>
<path d="M5762 810 c-23 -17 -42 -33 -42 -37 0 -3 8 1 18 9 9 9 33 25 52 37
19 11 30 21 24 21 -6 0 -30 -14 -52 -30z"/>
<path d="M740 798 l-23 -33 31 29 c34 31 37 36 24 36 -5 0 -19 -15 -32 -32z"/>
<path d="M2933 823 c9 -2 23 -2 30 0 6 3 -1 5 -18 5 -16 0 -22 -2 -12 -5z"/>
<path d="M5411 814 c0 -11 3 -14 6 -6 3 7 2 16 -1 19 -3 4 -6 -2 -5 -13z"/>
<path d="M5462 810 c0 -14 2 -19 5 -12 2 6 2 18 0 25 -3 6 -5 1 -5 -13z"/>
<path d="M4381 804 c0 -11 3 -14 6 -6 3 7 2 16 -1 19 -3 4 -6 -2 -5 -13z"/>
<path d="M3058 803 c7 -3 16 -2 19 1 4 3 -2 6 -13 5 -11 0 -14 -3 -6 -6z"/>
<path d="M1265 793 c44 -9 49 -13 37 -25 -8 -8 -11 -42 -10 -92 l2 -81 3 75
c2 41 9 80 15 87 15 19 -8 43 -41 42 -20 -1 -21 -2 -6 -6z"/>
<path d="M5228 783 c7 -3 16 -2 19 1 4 3 -2 6 -13 5 -11 0 -14 -3 -6 -6z"/>
<path d="M5385 770 c-11 -4 -32 -6 -46 -3 -15 3 -30 -1 -38 -11 -12 -14 -9
-16 22 -16 38 0 87 18 87 32 0 4 -1 8 -2 7 -2 0 -12 -4 -23 -9z m-38 -16 c-3
-3 -12 -4 -19 -1 -8 3 -5 6 6 6 11 1 17 -2 13 -5z"/>
<path d="M5451 748 c0 -20 -8 -43 -16 -52 -19 -19 -19 -27 0 -20 16 7 30 61
22 91 -3 10 -5 1 -6 -19z"/>
<path d="M1732 727 c12 -28 28 -31 36 -7 3 8 0 10 -7 5 -7 -4 -19 1 -27 11
-13 17 -13 16 -2 -9z"/>
<path d="M401 718 c-11 -11 -18 -25 -15 -29 7 -11 -118 -90 -134 -84 -7 3 -10
1 -7 -4 6 -11 -84 -100 -102 -101 -7 0 -13 -5 -13 -12 0 -6 -10 -23 -22 -37
-13 -14 -5 -9 18 12 22 21 51 37 64 38 22 0 23 1 6 8 -17 7 -15 11 20 39 21
17 43 32 47 33 14 2 129 -86 179 -138 l48 -49 -36 -57 c-19 -31 -42 -57 -49
-57 -8 0 -12 -6 -9 -13 7 -18 -123 -140 -139 -131 -7 4 -9 4 -5 -1 4 -4 -3
-16 -15 -27 l-22 -19 26 16 c25 15 29 14 70 -10 24 -13 49 -25 54 -24 6 0 -11
11 -37 25 -27 13 -48 26 -48 27 0 2 33 37 73 77 60 62 80 76 122 87 69 17 72
16 89 -14 8 -16 15 -24 16 -20 0 5 -5 18 -11 29 -9 16 -8 23 2 29 11 7 10 9
-3 9 -10 0 -29 18 -44 39 -21 33 -24 43 -14 61 6 12 9 24 7 27 -3 2 -8 -5 -12
-17 -4 -12 -11 -20 -15 -18 -5 2 -37 30 -72 63 -35 33 -80 72 -100 85 -21 14
-36 30 -35 35 2 6 24 23 49 38 40 25 49 27 66 16 18 -12 24 -10 47 11 14 13
25 27 25 32 0 5 -11 -3 -23 -18 -18 -20 -29 -25 -43 -20 -19 7 -19 8 0 22 11
8 14 14 8 14 -19 0 -14 18 9 30 15 9 24 8 35 -1 11 -9 14 -8 14 5 0 24 -45 20
-69 -6z m139 -399 c0 -8 -91 -32 -97 -26 -2 2 9 23 24 46 l28 43 22 -29 c13
-15 23 -31 23 -34z"/>
<path d="M4461 738 c2 -2 18 -14 34 -28 l30 -25 -24 28 c-14 15 -29 27 -34 27
-6 0 -8 -1 -6 -2z"/>
<path d="M4826 714 c-4 -14 -5 -28 -3 -31 3 -2 8 8 11 23 4 14 5 28 3 31 -3 2
-8 -8 -11 -23z"/>
<path d="M523 707 c12 -13 24 -22 26 -20 6 4 -30 43 -40 43 -5 0 2 -10 14 -23z"/>
<path d="M3590 711 c0 -5 15 -20 33 -32 l32 -22 -29 31 c-32 34 -36 37 -36 23z"/>
<path d="M1253 655 c0 -33 2 -45 4 -27 2 18 2 45 0 60 -2 15 -4 0 -4 -33z"/>
<path d="M28 693 c7 -3 16 -2 19 1 4 3 -2 6 -13 5 -11 0 -14 -3 -6 -6z"/>
<path d="M5742 675 c0 -16 2 -22 5 -12 2 9 2 23 0 30 -3 6 -5 -1 -5 -18z"/>
<path d="M5957 683 c-17 -20 -27 -145 -11 -150 5 -2 8 25 6 63 -3 52 0 70 14
85 9 10 15 19 12 19 -3 0 -12 -8 -21 -17z"/>
<path d="M120 665 c14 -8 30 -14 35 -14 6 0 -1 6 -15 14 -14 8 -29 14 -35 14
-5 0 1 -6 15 -14z"/>
<path d="M1980 660 c-6 -11 -8 -20 -6 -20 3 0 10 9 16 20 6 11 8 20 6 20 -3 0
-10 -9 -16 -20z"/>
<path d="M5777 660 c10 -11 19 -20 21 -20 1 0 -2 9 -8 20 -6 11 -15 20 -20 20
-6 0 -2 -9 7 -20z"/>
<path d="M552 635 c-1 -22 -4 -56 -6 -75 -2 -19 -1 -27 1 -17 4 14 18 17 91
19 l87 2 -82 3 -82 4 -4 52 c-3 45 -4 46 -5 12z"/>
<path d="M4841 633 c-10 -26 -10 -27 4 -9 8 11 15 23 15 28 0 15 -7 8 -19 -19z"/>
<path d="M170 646 c0 -3 14 -12 30 -21 17 -9 30 -13 30 -11 0 3 -13 12 -30 21
-16 9 -30 13 -30 11z"/>
<path d="M6031 634 c0 -11 3 -14 6 -6 3 7 2 16 -1 19 -3 4 -6 -2 -5 -13z"/>
<path d="M4570 636 c0 -2 8 -10 18 -17 15 -13 16 -12 3 4 -13 16 -21 21 -21
13z"/>
<path d="M5909 623 c-13 -16 -12 -17 4 -4 9 7 17 15 17 17 0 8 -8 3 -21 -13z"/>
<path d="M1332 610 c0 -14 2 -19 5 -12 2 6 2 18 0 25 -3 6 -5 1 -5 -13z"/>
<path d="M3210 615 c-14 -8 -20 -14 -15 -14 6 0 21 6 35 14 14 8 21 14 15 14
-5 0 -21 -6 -35 -14z"/>
<path d="M3710 616 c0 -3 9 -10 20 -16 11 -6 20 -8 20 -6 0 3 -9 10 -20 16
-11 6 -20 8 -20 6z"/>
<path d="M738 603 c7 -3 16 -2 19 1 4 3 -2 6 -13 5 -11 0 -14 -3 -6 -6z"/>
<path d="M4816 585 c-9 -26 -7 -32 5 -12 6 10 9 21 6 23 -2 3 -7 -2 -11 -11z"/>
<path d="M850 558 c30 -18 60 -44 67 -58 8 -15 13 -19 13 -9 0 19 -44 61 -87
83 -54 27 -50 18 7 -16z"/>
<path d="M5870 580 c0 -5 5 -10 10 -10 6 0 10 5 10 10 0 6 -4 10 -10 10 -5 0
-10 -4 -10 -10z"/>
<path d="M1899 549 c-15 -16 -23 -29 -20 -29 10 0 55 49 50 54 -2 2 -16 -9
-30 -25z"/>
<path d="M2783 564 c-8 -21 13 -42 28 -27 13 13 5 43 -11 43 -6 0 -13 -7 -17
-16z"/>
<path d="M738 553 c7 -3 16 -2 19 1 4 3 -2 6 -13 5 -11 0 -14 -3 -6 -6z"/>
<path d="M3075 534 l-30 -26 35 23 c45 29 45 29 34 29 -5 0 -22 -12 -39 -26z"/>
<path d="M4847 525 c-24 -50 -20 -58 4 -12 11 22 19 41 17 43 -3 2 -12 -12
-21 -31z"/>
<path d="M5849 543 c-13 -16 -12 -17 4 -4 16 13 21 21 13 21 -2 0 -10 -8 -17
-17z"/>
<path d="M398 543 c7 -3 16 -2 19 1 4 3 -2 6 -13 5 -11 0 -14 -3 -6 -6z"/>
<path d="M794 529 c27 -22 34 -56 16 -89 -14 -25 -96 -74 -114 -67 -8 3 -22
-4 -33 -15 -13 -16 -14 -20 -3 -16 52 18 60 19 66 4 8 -20 -21 -66 -42 -66 -8
0 -19 10 -24 23 -6 15 -9 17 -9 6 -1 -22 25 -43 43 -36 8 3 23 18 32 32 14 21
15 31 6 45 -9 15 -7 20 19 30 71 30 105 121 57 154 -33 24 -45 19 -14 -5z"/>
<path d="M1342 510 c0 -19 2 -27 5 -17 2 9 2 25 0 35 -3 9 -5 1 -5 -18z"/>
<path d="M3880 530 c8 -5 20 -10 25 -10 6 0 3 5 -5 10 -8 5 -19 10 -25 10 -5
0 -3 -5 5 -10z"/>
<path d="M288 523 c7 -3 16 -2 19 1 4 3 -2 6 -13 5 -11 0 -14 -3 -6 -6z"/>
<path d="M228 513 c6 -2 18 -2 25 0 6 3 1 5 -13 5 -14 0 -19 -2 -12 -5z"/>
<path d="M4507 501 c-41 -26 -46 -36 -10 -17 17 9 35 20 38 26 8 13 6 12 -28
-9z"/>
<path d="M5816 498 c-9 -12 -16 -29 -16 -38 0 -8 9 0 21 19 23 38 19 54 -5 19z"/>
<path d="M1531 494 c0 -11 3 -14 6 -6 3 7 2 16 -1 19 -3 4 -6 -2 -5 -13z"/>
<path d="M6034 477 l-29 -32 30 25 c17 14 32 26 34 28 2 1 2 4 -1 7 -2 3 -18
-10 -34 -28z"/>
<path d="M1297 485 c-4 -8 -2 -17 3 -20 6 -4 10 3 10 14 0 25 -6 27 -13 6z"/>
<path d="M88 483 c6 -2 18 -2 25 0 6 3 1 5 -13 5 -14 0 -19 -2 -12 -5z"/>
<path d="M2260 480 c-8 -5 -10 -10 -5 -10 6 0 17 5 25 10 8 5 11 10 5 10 -5 0
-17 -5 -25 -10z"/>
<path d="M2425 477 c3 -7 -29 -61 -70 -120 -41 -60 -71 -106 -66 -102 11 6
131 177 150 213 10 18 9 22 -3 22 -9 0 -13 -6 -11 -13z"/>
<path d="M4038 483 c7 -3 16 -2 19 1 4 3 -2 6 -13 5 -11 0 -14 -3 -6 -6z"/>
<path d="M5258 483 c7 -3 16 -2 19 1 4 3 -2 6 -13 5 -11 0 -14 -3 -6 -6z"/>
<path d="M48 473 c7 -3 16 -2 19 1 4 3 -2 6 -13 5 -11 0 -14 -3 -6 -6z"/>
<path d="M1211 444 c0 -23 6 -48 15 -60 15 -18 15 -18 5 3 -14 29 -14 38 2 26
6 -5 27 -10 45 -11 26 -2 32 1 32 18 0 11 -4 20 -10 20 -5 0 -10 -7 -10 -15 0
-26 -19 -16 -23 13 l-4 27 -2 -27 c-2 -45 -34 -29 -44 22 -3 17 -5 12 -6 -16z"/>
<path d="M8 463 c7 -3 16 -2 19 1 4 3 -2 6 -13 5 -11 0 -14 -3 -6 -6z"/>
<path d="M1651 451 c-1 -20 -5 -23 -31 -19 -18 3 -27 1 -22 -4 5 -5 23 -8 39
-6 26 3 28 6 22 28 l-7 25 -1 -24z"/>
<path d="M1770 455 c-14 -8 -20 -14 -14 -15 5 0 19 7 30 15 24 18 16 19 -16 0z"/>
<path d="M2198 454 c-39 -21 -35 -28 5 -8 37 19 44 24 31 24 -5 -1 -21 -8 -36
-16z"/>
<path d="M2973 448 c-11 -13 -24 -30 -28 -38 -8 -16 -6 -14 34 33 14 15 22 27
19 27 -2 0 -14 -10 -25 -22z"/>
<path d="M3673 463 c9 -2 25 -2 35 0 9 3 1 5 -18 5 -19 0 -27 -2 -17 -5z"/>
<path d="M5954 439 c3 -34 21 -79 32 -79 3 0 2 5 -2 11 -4 6 -13 32 -20 58
-12 42 -13 43 -10 10z"/>
<path d="M2320 450 c-8 -5 -10 -10 -5 -10 6 0 17 5 25 10 8 5 11 10 5 10 -5 0
-17 -5 -25 -10z"/>
<path d="M3578 453 c12 -2 32 -2 45 0 12 2 2 4 -23 4 -25 0 -35 -2 -22 -4z"/>
<path d="M4173 453 c9 -2 23 -2 30 0 6 3 -1 5 -18 5 -16 0 -22 -2 -12 -5z"/>
<path d="M3493 443 c9 -2 25 -2 35 0 9 3 1 5 -18 5 -19 0 -27 -2 -17 -5z"/>
<path d="M4328 443 c12 -2 30 -2 40 0 9 3 -1 5 -23 4 -22 0 -30 -2 -17 -4z"/>
<path d="M5150 429 c-16 -30 -8 -31 13 -3 10 13 13 24 8 24 -6 0 -15 -9 -21
-21z"/>
<path d="M902 399 c-12 -21 -21 -39 -18 -39 7 0 49 71 44 75 -2 2 -14 -14 -26
-36z"/>
<path d="M3428 433 c6 -2 18 -2 25 0 6 3 1 5 -13 5 -14 0 -19 -2 -12 -5z"/>
<path d="M5790 416 c0 -14 4 -27 8 -30 5 -3 6 8 4 25 -5 35 -12 38 -12 5z"/>
<path d="M0 424 c0 -6 7 -19 16 -30 14 -18 14 -18 3 6 -14 31 -19 36 -19 24z"/>
<path d="M2690 410 c0 -15 5 -20 18 -18 9 2 17 10 17 18 0 8 -8 16 -17 18 -13
2 -18 -3 -18 -18z"/>
<path d="M5422 405 c15 -16 30 -26 33 -23 4 3 -9 16 -27 28 l-33 23 27 -28z"/>
<path d="M51 385 c-17 -20 -31 -39 -31 -42 0 -3 3 -3 7 0 3 4 15 -1 26 -10 20
-18 20 -18 4 7 -16 23 -16 25 10 52 15 15 24 28 21 28 -3 0 -20 -16 -37 -35z"/>
<path d="M231 393 c0 -11 3 -13 6 -5 8 21 53 14 63 -10 5 -14 9 -17 9 -7 1 23
-20 39 -51 39 -20 0 -28 -5 -27 -17z"/>
<path d="M2088 403 c7 -3 16 -2 19 1 4 3 -2 6 -13 5 -11 0 -14 -3 -6 -6z"/>
<path d="M2150 320 l-165 -88 2 -69 c5 -127 4 -127 87 -44 72 71 74 73 119 70
41 -3 49 0 68 27 l23 29 -25 -22 c-20 -18 -37 -23 -82 -23 -40 0 -57 -4 -57
-13 0 -7 -18 -31 -40 -52 -40 -40 -48 -37 -30 9 6 17 6 26 0 26 -6 0 -10 -6
-10 -12 0 -7 -9 -31 -20 -53 l-19 -40 4 84 c3 55 8 87 17 92 10 6 15 -1 19
-29 l6 -37 2 42 c1 39 4 44 39 60 20 9 42 17 47 17 6 1 14 7 18 14 4 6 12 12
17 12 20 0 9 -27 -24 -59 -30 -29 -35 -31 -39 -15 -3 13 -5 10 -6 -8 -1 -33
-21 -38 -21 -6 0 29 -6 20 -13 -19 -5 -25 -3 -33 8 -33 8 0 15 4 15 9 0 9 77
80 199 184 25 20 40 37 35 37 -5 -1 -83 -41 -174 -90z m102 28 c-6 -6 -15 -8
-19 -4 -4 4 -1 11 7 16 19 12 27 3 12 -12z m-32 -17 c0 -5 -7 -14 -15 -21 -12
-10 -15 -10 -15 2 0 8 3 18 7 21 9 10 23 9 23 -2z m-223 -143 c-3 -7 -5 -2 -5
12 0 14 2 19 5 13 2 -7 2 -19 0 -25z"/>
<path d="M3568 403 c17 -2 47 -2 65 0 17 2 3 4 -33 4 -36 0 -50 -2 -32 -4z"/>
<path d="M3701 383 c-1 -26 2 -31 15 -26 9 3 11 9 6 12 -5 3 -12 15 -15 26 -3
13 -5 9 -6 -12z"/>
<path d="M2150 390 c-8 -5 -10 -10 -5 -10 6 0 17 5 25 10 8 5 11 10 5 10 -5 0
-17 -5 -25 -10z"/>
<path d="M3433 393 c15 -2 37 -2 50 0 12 2 0 4 -28 4 -27 0 -38 -2 -22 -4z"/>
<path d="M5916 386 c4 -11 2 -21 -7 -27 -10 -6 -11 -9 -1 -9 18 0 27 29 13 43
-9 9 -11 8 -5 -7z"/>
<path d="M3328 383 c12 -2 30 -2 40 0 9 3 -1 5 -23 4 -22 0 -30 -2 -17 -4z"/>
<path d="M5880 379 c0 -5 5 -7 10 -4 6 3 10 8 10 11 0 2 -4 4 -10 4 -5 0 -10
-5 -10 -11z"/>
<path d="M3230 363 c0 -12 3 -14 8 -7 4 7 18 14 32 17 21 4 20 4 -7 6 -25 1
-33 -3 -33 -16z"/>
<path d="M2055 355 c-25 -12 -26 -14 -5 -9 28 7 60 23 45 23 -5 0 -23 -6 -40
-14z"/>
<path d="M3819 356 c13 -7 30 -24 37 -37 7 -13 13 -18 14 -11 0 17 -45 62 -62
62 -7 -1 -2 -7 11 -14z"/>
<path d="M230 350 c0 -9 39 -25 45 -18 2 2 -7 8 -21 15 -13 6 -24 7 -24 3z"/>
<path d="M1596 323 c-15 -18 -22 -31 -15 -28 15 6 53 54 47 59 -1 2 -16 -12
-32 -31z"/>
<path d="M3673 290 c0 -41 2 -58 4 -37 2 20 2 54 0 75 -2 20 -4 3 -4 -38z"/>
<path d="M6103 349 c-7 -7 -29 -15 -50 -19 -37 -7 -37 -8 -7 -9 18 -1 42 7 55
19 13 10 22 19 19 20 -4 0 -11 -5 -17 -11z"/>
<path d="M1268 343 c-17 -4 -14 -33 4 -33 5 0 7 4 4 9 -4 5 0 11 6 14 18 6 6
14 -14 10z"/>
<path d="M1990 330 c-8 -5 -10 -10 -5 -10 6 0 17 5 25 10 8 5 11 10 5 10 -5 0
-17 -5 -25 -10z"/>
<path d="M3728 333 c12 -2 32 -2 45 0 12 2 2 4 -23 4 -25 0 -35 -2 -22 -4z"/>
<path d="M3200 320 l-25 -8 28 -1 c15 -1 27 4 27 9 0 6 -1 10 -2 9 -2 -1 -14
-5 -28 -9z"/>
<path d="M3460 320 c-12 -8 -11 -10 7 -10 12 0 24 -8 26 -17 4 -15 5 -15 6 -2
1 23 -21 40 -39 29z"/>
<path d="M3816 308 c10 -14 21 -24 23 -22 3 3 -6 15 -18 27 l-24 22 19 -27z"/>
<path d="M5510 324 c0 -6 15 -23 32 -40 l33 -29 -25 30 c-14 17 -28 34 -32 40
-5 5 -8 5 -8 -1z"/>
<path d="M100 273 l31 -42 -68 -4 -68 -3 74 -2 c70 -2 76 -4 125 -43 l51 -42
-50 47 c-27 26 -67 66 -88 89 l-39 42 32 -42z"/>
<path d="M819 293 c-13 -17 -13 -17 6 -3 11 8 22 16 24 17 2 2 0 3 -6 3 -6 0
-17 -8 -24 -17z"/>
<path d="M1910 300 c-8 -5 -10 -10 -5 -10 6 0 17 5 25 10 8 5 11 10 5 10 -5 0
-17 -5 -25 -10z"/>
<path d="M2876 295 c-9 -26 -7 -32 5 -12 6 10 9 21 6 23 -2 3 -7 -2 -11 -11z"/>
<path d="M3713 265 c0 -27 2 -38 4 -22 2 15 2 37 0 50 -2 12 -4 0 -4 -28z"/>
<path d="M5141 294 c0 -11 3 -14 6 -6 3 7 2 16 -1 19 -3 4 -6 -2 -5 -13z"/>
<path d="M3116 284 c-23 -23 -20 -30 4 -9 11 10 20 20 20 22 0 7 -9 2 -24 -13z"/>
<path d="M3205 290 c-19 -8 -19 -9 3 -9 12 -1 22 4 22 9 0 6 -1 10 -2 9 -2 0
-12 -4 -23 -9z"/>
<path d="M3872 258 c-1 -20 -5 -45 -8 -55 -5 -17 -5 -17 6 0 6 9 9 34 7 55
l-4 37 -1 -37z"/>
<path d="M4314 279 c-8 -14 11 -33 25 -25 16 10 13 36 -3 36 -8 0 -18 -5 -22
-11z"/>
<path d="M1835 270 c-3 -6 1 -7 9 -4 18 7 21 14 7 14 -6 0 -13 -4 -16 -10z"/>
<path d="M2602 263 c2 -10 10 -18 18 -18 8 0 16 8 18 18 2 12 -3 17 -18 17
-15 0 -20 -5 -18 -17z"/>
<path d="M4700 248 c0 -29 1 -30 13 -14 11 15 17 17 35 7 36 -19 25 -5 -13 18
l-35 20 0 -31z"/>
<path d="M4840 261 c5 -11 15 -23 21 -27 6 -3 3 5 -6 20 -20 30 -30 35 -15 7z"/>
<path d="M320 260 c-20 -6 -21 -8 -5 -8 11 0 31 4 45 8 20 6 21 8 5 8 -11 0
-31 -4 -45 -8z"/>
<path d="M3410 250 c-6 -11 -8 -25 -5 -30 12 -19 20 -10 20 20 0 36 -1 36 -15
10z"/>
<path d="M3842 250 c0 -14 2 -19 5 -12 2 6 2 18 0 25 -3 6 -5 1 -5 -13z"/>
<path d="M5151 260 c0 -8 4 -22 9 -30 12 -18 12 -2 0 25 -6 13 -9 15 -9 5z"/>
<path d="M3231 244 c0 -11 3 -14 6 -6 3 7 2 16 -1 19 -3 4 -6 -2 -5 -13z"/>
<path d="M258 243 c6 -2 18 -2 25 0 6 3 1 5 -13 5 -14 0 -19 -2 -12 -5z"/>
<path d="M1470 230 c-19 -11 -30 -19 -25 -19 6 0 26 8 45 19 19 11 31 19 25
19 -5 0 -26 -8 -45 -19z"/>
<path d="M1853 243 c9 -2 23 -2 30 0 6 3 -1 5 -18 5 -16 0 -22 -2 -12 -5z"/>
<path d="M183 233 c9 -2 25 -2 35 0 9 3 1 5 -18 5 -19 0 -27 -2 -17 -5z"/>
<path d="M1933 233 c9 -2 23 -2 30 0 6 3 -1 5 -18 5 -16 0 -22 -2 -12 -5z"/>
<path d="M3502 210 c0 -19 2 -27 5 -17 2 9 2 25 0 35 -3 9 -5 1 -5 -18z"/>
<path d="M3450 220 c-8 -5 -12 -12 -9 -15 4 -3 12 1 19 10 14 17 11 19 -10 5z"/>
<path d="M4816 178 c21 -29 42 -57 47 -63 15 -15 -2 15 -29 52 -13 17 -24 36
-24 41 0 6 -7 13 -16 16 -9 3 0 -16 22 -46z"/>
<path d="M3122 200 c0 -14 2 -19 5 -12 2 6 2 18 0 25 -3 6 -5 1 -5 -13z"/>
<path d="M3815 198 l-20 -21 23 12 c12 6 22 16 22 21 0 13 -2 12 -25 -12z"/>
<path d="M3696 175 c-8 -43 -47 -90 -95 -115 -20 -10 -30 -19 -23 -20 7 0 17
-10 22 -22 6 -17 9 -18 9 -6 1 9 -4 20 -10 24 -6 4 5 16 28 30 21 12 45 34 53
48 9 19 22 26 44 27 30 2 30 2 4 6 -24 4 -27 8 -21 34 3 16 3 29 0 29 -2 0 -8
-16 -11 -35z"/>
<path d="M4717 180 c3 -14 9 -26 14 -28 5 -2 9 -7 9 -12 0 -10 61 -110 67
-110 2 0 -14 31 -34 69 -35 65 -40 98 -11 73 10 -8 13 -5 13 14 0 13 -3 24 -7
24 -5 0 -8 -4 -8 -9 0 -14 -38 -20 -43 -7 -2 6 -2 0 0 -14z"/>
<path d="M5610 205 c0 -4 11 -20 25 -37 14 -16 25 -26 25 -23 0 4 -11 20 -25
37 -14 16 -25 26 -25 23z"/>
<path d="M592 170 c0 -19 2 -27 5 -17 2 9 2 25 0 35 -3 9 -5 1 -5 -18z"/>
<path d="M4641 195 c0 -5 8 -26 19 -45 11 -19 19 -30 19 -25 0 6 -8 26 -19 45
-11 19 -19 31 -19 25z"/>
<path d="M2853 145 c0 -27 2 -38 4 -22 2 15 2 37 0 50 -2 12 -4 0 -4 -28z"/>
<path d="M3091 174 c0 -11 3 -14 6 -6 3 7 2 16 -1 19 -3 4 -6 -2 -5 -13z"/>
<path d="M4134 179 c-10 -17 13 -36 27 -22 12 12 4 33 -11 33 -5 0 -12 -5 -16
-11z"/>
<path d="M1338 158 c-13 -13 -17 -18 -8 -12 8 6 24 16 35 22 11 6 15 12 8 12
-7 0 -22 -10 -35 -22z"/>
<path d="M3466 165 c-3 -8 -1 -15 4 -15 6 0 10 7 10 15 0 8 -2 15 -4 15 -2 0
-6 -7 -10 -15z"/>
<path d="M3743 173 c9 -2 25 -2 35 0 9 3 1 5 -18 5 -19 0 -27 -2 -17 -5z"/>
<path d="M3845 171 c-6 -5 -26 -14 -45 -20 l-35 -11 35 5 c19 3 41 12 50 20 8
8 12 15 9 15 -3 0 -9 -4 -14 -9z"/>
<path d="M3130 161 c0 -10 39 -46 43 -40 2 2 -7 14 -20 26 -13 12 -23 19 -23
14z"/>
<path d="M3264 150 c0 -10 4 -17 7 -14 14 8 21 -18 8 -28 -11 -8 -10 -9 3 -5
9 3 29 -4 45 -16 19 -14 13 -5 -16 28 -25 28 -45 51 -46 52 0 1 -1 -6 -1 -17z"/>
<path d="M3510 158 c0 -4 11 -8 25 -8 27 0 34 -16 10 -23 -11 -4 -10 -4 2 -3
10 1 19 9 21 17 2 12 -6 18 -27 21 -17 3 -31 1 -31 -4z"/>
<path d="M962 130 c0 -19 2 -27 5 -17 2 9 2 25 0 35 -3 9 -5 1 -5 -18z"/>
<path d="M3100 143 c0 -5 12 -20 28 -34 l27 -24 -25 30 c-14 17 -26 32 -27 34
-2 2 -3 0 -3 -6z"/>
<path d="M3424 139 c-3 -6 -1 -15 5 -20 6 -5 9 -6 6 -3 -3 4 0 13 6 21 8 9 8
13 1 13 -6 0 -14 -5 -18 -11z"/>
<path d="M4390 135 c0 -10 7 -15 18 -13 21 4 19 22 -2 26 -10 2 -16 -3 -16
-13z"/>
<path d="M5190 145 c0 -5 5 -17 10 -25 5 -8 10 -10 10 -5 0 6 -5 17 -10 25 -5
8 -10 11 -10 5z"/>
<path d="M2510 120 c0 -15 5 -20 18 -18 9 2 17 10 17 18 0 8 -8 16 -17 18 -13
2 -18 -3 -18 -18z"/>
<path d="M566 103 c-10 -14 -33 -31 -50 -39 -17 -7 -25 -13 -17 -14 20 0 78
38 85 57 10 25 3 23 -18 -4z"/>
<path d="M629 103 c-22 -46 -22 -50 1 -15 13 18 20 35 18 37 -3 3 -11 -7 -19
-22z"/>
<path d="M1826 115 c-9 -26 -7 -32 5 -12 6 10 9 21 6 23 -2 3 -7 -2 -11 -11z"/>
<path d="M4816 83 c36 -63 54 -89 54 -79 0 10 -71 126 -77 126 -3 0 7 -21 23
-47z"/>
<path d="M3488 113 c6 -2 18 -2 25 0 6 3 1 5 -13 5 -14 0 -19 -2 -12 -5z"/>
<path d="M3600 100 c-9 -6 -10 -10 -3 -10 6 0 15 5 18 10 8 12 4 12 -15 0z"/>
<path d="M121 81 c-6 -11 -11 -29 -11 -41 0 -19 2 -20 15 -6 8 8 31 20 50 27
19 7 35 17 35 21 0 12 -6 10 -42 -12 -42 -25 -56 -26 -34 -1 11 12 13 21 7 25
-5 4 -15 -2 -20 -13z"/>
<path d="M4880 80 c6 -11 13 -20 16 -20 2 0 0 9 -6 20 -6 11 -13 20 -16 20 -2
0 0 -9 6 -20z"/>
<path d="M3178 83 c12 -2 30 -2 40 0 9 3 -1 5 -23 4 -22 0 -30 -2 -17 -4z"/>
<path d="M3960 71 c0 -12 6 -21 16 -21 9 0 14 7 12 17 -5 25 -28 28 -28 4z"/>
<path d="M5732 50 c12 -17 26 -30 32 -30 5 0 -3 14 -19 30 -16 17 -30 30 -32
30 -2 0 6 -13 19 -30z"/>
<path d="M390 60 c8 -5 24 -10 34 -10 26 0 18 6 -19 14 -22 5 -26 4 -15 -4z"/>
<path d="M1251 54 c0 -11 3 -14 6 -6 3 7 2 16 -1 19 -3 4 -6 -2 -5 -13z"/>
<path d="M3374 56 c11 -9 24 -16 30 -16 12 0 7 5 -24 19 -24 11 -24 11 -6 -3z"/>
<path d="M458 43 c7 -3 16 -2 19 1 4 3 -2 6 -13 5 -11 0 -14 -3 -6 -6z"/>
<path d="M4210 36 c0 -10 9 -16 21 -16 24 0 21 23 -4 28 -10 2 -17 -3 -17 -12z"/>
<path d="M4911 30 c14 -31 19 -36 19 -24 0 6 -7 19 -16 30 -14 18 -14 18 -3
-6z"/>
<path d="M23 33 c15 -2 39 -2 55 0 15 2 2 4 -28 4 -30 0 -43 -2 -27 -4z"/>
<path d="M3436 33 c5 -5 12 -12 15 -16 3 -5 9 -2 12 7 5 12 0 16 -15 16 -12 0
-17 -3 -12 -7z"/>
<path d="M3513 33 c9 -2 23 -2 30 0 6 3 -1 5 -18 5 -16 0 -22 -2 -12 -5z"/>
<path d="M1241 14 c0 -11 3 -14 6 -6 3 7 2 16 -1 19 -3 4 -6 -2 -5 -13z"/>
<path d="M1746 15 c-11 -8 -15 -15 -9 -15 6 0 16 7 23 15 16 19 11 19 -14 0z"/>
<path d="M4470 10 c0 -5 7 -10 15 -10 8 0 15 5 15 10 0 6 -7 10 -15 10 -8 0
-15 -4 -15 -10z"/>
</g>
</svg>
